<?xml version="1.0" standalone="no"?>
<!DOCTYPE svg PUBLIC "-//W3C//DTD SVG 20010904//EN"
 "http://www.w3.org/TR/2001/REC-SVG-20010904/DTD/svg10.dtd">
<svg version="1.0" xmlns="http://www.w3.org/2000/svg"
 width="3443.000000pt" height="2217.000000pt" viewBox="0 0 3443.000000 2217.000000"
 preserveAspectRatio="xMidYMid meet">

<g transform="translate(0.000000,2217.000000) scale(0.100000,-0.100000)"
fill="#000000" stroke="none">
<path d="M24610 17441 l-85 -6 94 -7 c95 -7 125 -3 100 13 -8 5 -16 8 -19 7
-3 -1 -43 -4 -90 -7z"/>
<path d="M24170 17430 c0 -10 178 -4 189 6 2 2 -39 4 -92 4 -60 0 -97 -4 -97
-10z"/>
<path d="M23960 17390 c0 -13 50 -13 70 0 11 7 4 10 -27 10 -24 0 -43 -4 -43
-10z"/>
<path d="M24845 17390 c3 -5 15 -10 26 -10 10 0 19 5 19 10 0 6 -12 10 -26 10
-14 0 -23 -4 -19 -10z"/>
<path d="M23820 17350 c0 -5 11 -10 25 -10 14 0 25 5 25 10 0 6 -11 10 -25 10
-14 0 -25 -4 -25 -10z"/>
<path d="M23700 17310 c0 -5 9 -10 20 -10 11 0 20 5 20 10 0 6 -9 10 -20 10
-11 0 -20 -4 -20 -10z"/>
<path d="M25112 17268 c6 -18 28 -21 28 -4 0 9 -7 16 -16 16 -9 0 -14 -5 -12
-12z"/>
<path d="M23603 17263 c9 -2 23 -2 30 0 6 3 -1 5 -18 5 -16 0 -22 -2 -12 -5z"/>
<path d="M25160 17230 c0 -5 5 -10 10 -10 6 0 10 5 10 10 0 6 -4 10 -10 10 -5
0 -10 -4 -10 -10z"/>
<path d="M25200 17185 c0 -8 5 -15 10 -15 6 0 10 7 10 15 0 8 -4 15 -10 15 -5
0 -10 -7 -10 -15z"/>
<path d="M23425 17180 c4 -6 11 -8 16 -5 14 9 11 15 -7 15 -8 0 -12 -5 -9 -10z"/>
<path d="M23370 17139 c0 -5 5 -7 10 -4 6 3 10 8 10 11 0 2 -4 4 -10 4 -5 0
-10 -5 -10 -11z"/>
<path d="M25240 17141 c0 -6 5 -13 10 -16 6 -3 10 1 10 9 0 9 -4 16 -10 16 -5
0 -10 -4 -10 -9z"/>
<path d="M23290 17100 c0 -5 5 -10 10 -10 6 0 10 5 10 10 0 6 -4 10 -10 10 -5
0 -10 -4 -10 -10z"/>
<path d="M25284 17067 c-4 -10 -2 -23 3 -28 14 -14 24 13 13 32 -7 11 -10 10
-16 -4z"/>
<path d="M23120 16970 c0 -5 5 -10 10 -10 6 0 10 5 10 10 0 6 -4 10 -10 10 -5
0 -10 -4 -10 -10z"/>
<path d="M23070 16930 c0 -5 7 -10 15 -10 8 0 15 5 15 10 0 6 -7 10 -15 10 -8
0 -15 -4 -15 -10z"/>
<path d="M23030 16890 c0 -5 5 -10 10 -10 6 0 10 5 10 10 0 6 -4 10 -10 10 -5
0 -10 -4 -10 -10z"/>
<path d="M22990 16845 c0 -8 5 -15 10 -15 6 0 10 7 10 15 0 8 -4 15 -10 15 -5
0 -10 -7 -10 -15z"/>
<path d="M22950 16800 c0 -5 5 -10 10 -10 6 0 10 5 10 10 0 6 -4 10 -10 10 -5
0 -10 -4 -10 -10z"/>
<path d="M25287 16726 c-4 -15 -6 -31 -2 -34 10 -10 16 6 13 35 l-3 28 -8 -29z"/>
<path d="M22865 16681 c-6 -11 9 -23 19 -14 9 9 7 23 -3 23 -6 0 -12 -4 -16
-9z"/>
<path d="M25245 16627 c-4 -10 -5 -21 -1 -24 10 -10 18 4 13 24 -4 17 -4 17
-12 0z"/>
<path d="M22827 16606 c-3 -8 -2 -18 3 -21 13 -8 20 9 11 24 -6 10 -10 9 -14
-3z"/>
<path d="M25200 16535 c0 -8 5 -15 10 -15 6 0 10 7 10 15 0 8 -4 15 -10 15 -5
0 -10 -7 -10 -15z"/>
<path d="M22786 16507 c-5 -9 -5 -29 0 -45 7 -25 8 -26 11 -4 3 12 3 32 0 45
-3 19 -4 20 -11 4z"/>
<path d="M25160 16490 c0 -5 5 -10 10 -10 6 0 10 5 10 10 0 6 -4 10 -10 10 -5
0 -10 -4 -10 -10z"/>
<path d="M22784 16254 c-4 -14 -2 -30 5 -37 8 -8 11 -1 11 26 0 43 -7 48 -16
11z"/>
<path d="M24910 16240 c0 -5 5 -10 10 -10 6 0 10 5 10 10 0 6 -4 10 -10 10 -5
0 -10 -4 -10 -10z"/>
<path d="M24860 16200 c0 -5 5 -10 10 -10 6 0 10 5 10 10 0 6 -4 10 -10 10 -5
0 -10 -4 -10 -10z"/>
<path d="M24735 16110 c4 -6 11 -8 16 -5 14 9 11 15 -7 15 -8 0 -12 -5 -9 -10z"/>
<path d="M22870 16070 c0 -5 5 -10 10 -10 6 0 10 5 10 10 0 6 -4 10 -10 10 -5
0 -10 -4 -10 -10z"/>
<path d="M24650 16070 c0 -5 4 -10 9 -10 6 0 13 5 16 10 3 6 -1 10 -9 10 -9 0
-16 -4 -16 -10z"/>
<path d="M22900 16030 c0 -5 7 -10 15 -10 8 0 15 5 15 10 0 6 -7 10 -15 10 -8
0 -15 -4 -15 -10z"/>
<path d="M24570 16030 c0 -5 5 -10 10 -10 6 0 10 5 10 10 0 6 -4 10 -10 10 -5
0 -10 -4 -10 -10z"/>
<path d="M22950 15990 c0 -5 7 -10 16 -10 8 0 12 5 9 10 -3 6 -10 10 -16 10
-5 0 -9 -4 -9 -10z"/>
<path d="M24475 15990 c-3 -5 3 -10 14 -10 12 0 21 5 21 10 0 6 -6 10 -14 10
-8 0 -18 -4 -21 -10z"/>
<path d="M24385 15950 c-3 -5 3 -10 14 -10 12 0 21 5 21 10 0 6 -6 10 -14 10
-8 0 -18 -4 -21 -10z"/>
<path d="M24261 15911 c-11 -7 -9 -10 8 -16 25 -8 36 -2 26 14 -8 13 -15 14
-34 2z"/>
<path d="M23190 15860 c0 -5 9 -10 19 -10 11 0 23 5 26 10 4 6 -5 10 -19 10
-14 0 -26 -4 -26 -10z"/>
<path d="M24098 15858 c8 -8 17 -8 34 0 22 10 21 11 -11 11 -27 1 -32 -2 -23
-11z"/>
<path d="M23350 15820 c0 -5 25 -10 56 -10 34 0 53 4 49 10 -3 6 -28 10 -56
10 -27 0 -49 -4 -49 -10z"/>
<path d="M23835 15820 c-4 -6 20 -10 64 -10 41 0 71 4 71 10 0 6 -28 10 -64
10 -36 0 -68 -4 -71 -10z"/>
<path d="M18365 15521 c-16 -4 -55 -14 -85 -21 -62 -14 -172 -63 -190 -85 -7
-8 -17 -15 -22 -15 -17 0 -105 -95 -133 -145 -16 -27 -34 -57 -41 -65 -18 -22
-64 -223 -64 -279 0 -26 7 -74 16 -106 9 -33 20 -76 25 -96 16 -69 64 -144
140 -219 97 -96 181 -136 361 -171 63 -12 75 -11 190 16 68 15 134 36 147 46
13 11 32 19 42 19 10 0 56 37 102 83 90 88 126 149 166 281 56 186 -10 438
-154 581 -22 22 -71 60 -109 84 -105 66 -310 114 -391 92z m227 -92 c97 -32
157 -69 216 -134 15 -16 37 -39 49 -52 12 -12 25 -33 28 -45 4 -13 13 -30 20
-38 16 -20 44 -102 56 -165 12 -62 2 -192 -17 -222 -8 -12 -14 -30 -14 -39 0
-64 -144 -237 -231 -280 -24 -12 -62 -30 -83 -40 -57 -27 -291 -28 -356 0
-117 48 -127 55 -221 151 -27 27 -49 53 -49 58 0 5 -8 21 -19 35 -10 15 -21
45 -25 66 -4 22 -14 49 -22 60 -20 29 -18 207 2 261 9 22 18 54 21 70 3 17 14
41 24 54 11 13 19 29 19 36 0 16 117 139 164 170 37 25 91 48 151 65 17 4 74
8 128 9 75 1 112 -4 159 -20z"/>
<path d="M18257 15263 c-4 -3 -7 -158 -7 -343 0 -364 0 -366 52 -358 23 3 23
6 28 148 l5 145 76 3 76 3 32 -36 c30 -35 31 -37 31 -139 0 -115 9 -134 56
-122 l27 7 -6 125 c-5 121 -6 125 -36 159 -39 45 -39 61 1 102 32 33 33 35 32
128 -1 105 -6 117 -76 161 -34 22 -48 24 -161 24 -68 0 -127 -3 -130 -7z m263
-100 c30 -34 32 -40 28 -98 -3 -55 -7 -65 -38 -93 -31 -27 -42 -31 -92 -32
-82 0 -88 9 -88 134 0 66 4 106 12 114 7 7 40 12 79 12 65 0 68 -1 99 -37z"/>
<path d="M25885 15370 c-4 -6 22 -10 70 -10 48 0 74 4 70 10 -3 6 -35 10 -70
10 -35 0 -67 -4 -70 -10z"/>
<path d="M26175 15370 c-4 -6 23 -10 74 -10 47 0 81 4 81 10 0 6 -31 10 -74
10 -41 0 -78 -4 -81 -10z"/>
<path d="M25725 15330 c-4 -6 5 -10 20 -10 15 0 24 4 20 10 -3 6 -12 10 -20
10 -8 0 -17 -4 -20 -10z"/>
<path d="M26445 15330 c-3 -5 1 -10 9 -10 9 0 19 0 23 -1 4 0 9 4 11 10 5 14
-35 14 -43 1z"/>
<path d="M25638 15283 c7 -3 16 -2 19 1 4 3 -2 6 -13 5 -11 0 -14 -3 -6 -6z"/>
<path d="M26570 15286 c0 -10 28 -13 41 -5 10 6 7 9 -13 9 -16 0 -28 -2 -28
-4z"/>
<path d="M26676 15253 c-11 -11 -6 -23 9 -23 8 0 15 4 15 9 0 13 -16 22 -24
14z"/>
<path d="M25520 15240 c0 -5 7 -10 15 -10 8 0 15 5 15 10 0 6 -7 10 -15 10 -8
0 -15 -4 -15 -10z"/>
<path d="M26750 15200 c0 -5 7 -10 15 -10 8 0 15 5 15 10 0 6 -7 10 -15 10 -8
0 -15 -4 -15 -10z"/>
<path d="M21325 15160 c-4 -6 33 -10 105 -10 72 0 109 4 105 10 -3 6 -50 10
-105 10 -55 0 -102 -4 -105 -10z"/>
<path d="M25390 15160 c0 -5 5 -10 10 -10 6 0 10 5 10 10 0 6 -4 10 -10 10 -5
0 -10 -4 -10 -10z"/>
<path d="M21170 15120 c-12 -8 -9 -10 13 -10 16 0 26 4 22 10 -8 12 -16 12
-35 0z"/>
<path d="M25315 15120 c-3 -5 -1 -10 4 -10 6 0 11 5 11 10 0 6 -2 10 -4 10 -3
0 -8 -4 -11 -10z"/>
<path d="M21633 15113 c9 -2 23 -2 30 0 6 3 -1 5 -18 5 -16 0 -22 -2 -12 -5z"/>
<path d="M21706 15081 c-4 -5 -2 -12 3 -15 5 -4 12 -2 15 3 4 5 2 12 -3 15 -5
4 -12 2 -15 -3z"/>
<path d="M26926 15082 c-3 -6 -1 -14 5 -17 15 -10 25 3 12 16 -7 7 -13 7 -17
1z"/>
<path d="M21050 15070 c0 -5 6 -10 14 -10 8 0 18 5 21 10 3 6 -3 10 -14 10
-12 0 -21 -4 -21 -10z"/>
<path d="M20970 15030 c0 -5 7 -10 15 -10 8 0 15 5 15 10 0 6 -7 10 -15 10 -8
0 -15 -4 -15 -10z"/>
<path d="M25180 15030 c0 -5 7 -10 15 -10 8 0 15 5 15 10 0 6 -7 10 -15 10 -8
0 -15 -4 -15 -10z"/>
<path d="M26970 15030 c0 -5 5 -10 10 -10 6 0 10 5 10 10 0 6 -4 10 -10 10 -5
0 -10 -4 -10 -10z"/>
<path d="M25140 14990 c0 -5 5 -10 10 -10 6 0 10 5 10 10 0 6 -4 10 -10 10 -5
0 -10 -4 -10 -10z"/>
<path d="M21827 14964 c-8 -8 3 -34 14 -34 11 0 12 27 0 34 -4 3 -11 3 -14 0z"/>
<path d="M20840 14950 c0 -5 7 -10 15 -10 8 0 15 5 15 10 0 6 -7 10 -15 10 -8
0 -15 -4 -15 -10z"/>
<path d="M20717 14873 c-12 -11 -8 -23 8 -23 8 0 15 7 15 15 0 16 -12 20 -23
8z"/>
<path d="M21870 14860 c0 -11 5 -20 10 -20 6 0 10 9 10 20 0 11 -4 20 -10 20
-5 0 -10 -9 -10 -20z"/>
<path d="M24970 14865 c0 -9 5 -15 11 -13 6 2 11 8 11 13 0 5 -5 11 -11 13 -6
2 -11 -4 -11 -13z"/>
<path d="M27096 14871 c-4 -5 -2 -12 3 -15 5 -4 12 -2 15 3 4 5 2 12 -3 15 -5
4 -12 2 -15 -3z"/>
<path d="M20675 14820 c-3 -5 -1 -10 4 -10 6 0 11 5 11 10 0 6 -2 10 -4 10 -3
0 -8 -4 -11 -10z"/>
<path d="M27140 14784 c0 -8 5 -12 10 -9 6 4 8 11 5 16 -9 14 -15 11 -15 -7z"/>
<path d="M20630 14780 c0 -5 5 -10 10 -10 6 0 10 5 10 10 0 6 -4 10 -10 10 -5
0 -10 -4 -10 -10z"/>
<path d="M21910 14691 c0 -39 5 -73 10 -76 6 -4 10 22 10 69 0 44 -4 76 -10
76 -6 0 -10 -30 -10 -69z"/>
<path d="M20590 14740 c0 -5 5 -10 10 -10 6 0 10 5 10 10 0 6 -4 10 -10 10 -5
0 -10 -4 -10 -10z"/>
<path d="M24805 14740 c-3 -5 1 -10 9 -10 9 0 16 5 16 10 0 6 -4 10 -9 10 -6
0 -13 -4 -16 -10z"/>
<path d="M20545 14700 c-3 -5 1 -10 9 -10 9 0 16 5 16 10 0 6 -4 10 -9 10 -6
0 -13 -4 -16 -10z"/>
<path d="M24760 14700 c0 -5 5 -10 10 -10 6 0 10 5 10 10 0 6 -4 10 -10 10 -5
0 -10 -4 -10 -10z"/>
<path d="M27180 14701 c0 -6 5 -13 10 -16 6 -3 10 1 10 9 0 9 -4 16 -10 16 -5
0 -10 -4 -10 -9z"/>
<path d="M20506 14661 c-4 -5 -2 -12 3 -15 5 -4 12 -2 15 3 4 5 2 12 -3 15 -5
4 -12 2 -15 -3z"/>
<path d="M27220 14610 c0 -11 5 -20 10 -20 6 0 10 9 10 20 0 11 -4 20 -10 20
-5 0 -10 -9 -10 -20z"/>
<path d="M24630 14610 c0 -5 7 -10 15 -10 8 0 15 5 15 10 0 6 -7 10 -15 10 -8
0 -15 -4 -15 -10z"/>
<path d="M20422 14571 c4 -13 18 -16 19 -4 0 4 -5 9 -11 12 -7 2 -11 -2 -8 -8z"/>
<path d="M24505 14530 c-3 -5 1 -10 9 -10 9 0 16 5 16 10 0 6 -4 10 -9 10 -6
0 -13 -4 -16 -10z"/>
<path d="M21918 14514 c-5 -4 -8 -43 -8 -88 0 -56 3 -77 10 -70 6 6 10 44 8
88 -2 43 -6 74 -10 70z"/>
<path d="M27260 14488 c0 -13 4 -29 9 -36 6 -10 9 -8 13 10 2 13 3 29 0 36 -6
20 -22 13 -22 -10z"/>
<path d="M24428 14483 c7 -3 16 -2 19 1 4 3 -2 6 -13 5 -11 0 -14 -3 -6 -6z"/>
<path d="M20340 14444 c0 -8 5 -12 10 -9 6 3 10 10 10 16 0 5 -4 9 -10 9 -5 0
-10 -7 -10 -16z"/>
<path d="M24340 14440 c0 -5 7 -10 15 -10 8 0 15 5 15 10 0 6 -7 10 -15 10 -8
0 -15 -4 -15 -10z"/>
<path d="M20295 14401 c-6 -11 9 -23 19 -14 9 9 7 23 -3 23 -6 0 -12 -4 -16
-9z"/>
<path d="M24250 14400 c0 -5 7 -10 15 -10 8 0 15 5 15 10 0 6 -7 10 -15 10 -8
0 -15 -4 -15 -10z"/>
<path d="M24120 14360 c0 -5 12 -10 26 -10 14 0 23 4 19 10 -3 6 -15 10 -26
10 -10 0 -19 -4 -19 -10z"/>
<path d="M20250 14320 c0 -5 5 -10 10 -10 6 0 10 5 10 10 0 6 -4 10 -10 10 -5
0 -10 -4 -10 -10z"/>
<path d="M23914 14319 c-11 -18 3 -21 56 -14 28 4 50 8 48 10 -11 9 -98 13
-104 4z"/>
<path d="M27307 14304 c-2 -5 -2 -43 1 -84 l6 -75 7 70 c6 65 -1 110 -14 89z"/>
<path d="M21967 14269 c8 -8 161 -8 534 -1 l524 9 -534 1 c-384 2 -532 -1
-524 -9z"/>
<path d="M20170 14185 c0 -8 5 -15 10 -15 6 0 10 7 10 15 0 8 -4 15 -10 15 -5
0 -10 -7 -10 -15z"/>
<path d="M20130 14099 c0 -11 5 -17 10 -14 6 3 10 13 10 21 0 8 -4 14 -10 14
-5 0 -10 -9 -10 -21z"/>
<path d="M20092 13995 c0 -16 2 -22 5 -12 2 9 2 23 0 30 -3 6 -5 -1 -5 -18z"/>
<path d="M27308 13901 c-7 -74 -3 -100 12 -84 5 4 5 42 1 83 l-7 75 -6 -74z"/>
<path d="M20046 13901 c-3 -5 -2 -19 2 -32 9 -23 9 -23 14 4 5 27 -5 46 -16
28z"/>
<path d="M22770 13840 c0 -7 182 -10 528 -10 344 0 522 4 512 10 -21 13 -1040
13 -1040 0z"/>
<path d="M14575 13824 c-27 -8 -66 -17 -85 -21 -68 -12 -219 -102 -284 -169
-34 -34 -86 -102 -86 -112 0 -5 -9 -17 -20 -27 -11 -10 -20 -25 -20 -34 0 -9
-8 -32 -19 -51 -10 -19 -22 -51 -26 -70 -4 -19 -13 -44 -20 -55 -30 -47 -35
-254 -35 -1315 0 -1061 5 -1268 35 -1315 7 -11 16 -36 20 -55 4 -19 16 -51 26
-70 11 -19 19 -42 19 -51 0 -9 9 -24 20 -34 11 -10 20 -22 20 -27 0 -10 52
-78 86 -112 65 -67 232 -166 279 -166 14 0 44 -8 67 -17 36 -15 75 -18 239
-18 134 0 200 4 210 12 8 6 37 14 64 18 28 4 70 18 95 31 25 13 48 24 52 24 9
0 72 43 91 62 8 8 28 25 43 39 37 31 114 124 114 137 0 5 9 20 19 34 11 13 23
38 27 54 4 16 12 36 19 44 8 8 16 33 20 55 3 22 14 60 23 85 15 39 17 92 17
405 l0 360 -180 0 -180 0 -5 -320 c-5 -274 -8 -325 -23 -354 -9 -19 -17 -44
-17 -55 0 -34 -49 -116 -99 -166 -25 -26 -73 -59 -106 -75 -56 -27 -68 -28
-185 -28 -113 1 -130 3 -180 27 -55 25 -160 119 -160 141 0 7 -9 24 -20 38
-11 14 -20 32 -20 41 0 9 -10 44 -22 78 l-23 63 0 1115 0 1115 23 63 c12 34
22 69 22 78 0 9 9 27 20 41 11 14 20 31 20 38 0 22 105 116 160 141 50 24 66
26 186 27 118 0 135 -2 166 -21 20 -12 41 -22 48 -22 39 0 170 -175 170 -226
0 -12 7 -39 17 -60 13 -31 17 -89 22 -293 l6 -254 173 0 c102 0 178 5 183 10
16 16 7 592 -9 620 -7 13 -17 49 -23 80 -6 32 -17 65 -24 73 -7 8 -15 28 -19
44 -4 16 -16 41 -27 54 -10 14 -19 29 -19 34 0 13 -77 106 -114 137 -15 14
-35 31 -43 39 -19 19 -82 62 -91 62 -4 0 -27 11 -52 24 -25 13 -66 26 -93 30
-26 4 -59 14 -75 22 -38 20 -346 19 -417 -2z"/>
<path d="M21700 13795 c0 -8 5 -15 10 -15 6 0 10 7 10 15 0 8 -4 15 -10 15 -5
0 -10 -7 -10 -15z"/>
<path d="M23985 13800 c-4 -6 7 -10 27 -10 25 0 29 3 18 10 -19 13 -37 13 -45
0z"/>
<path d="M6035 13788 c-3 -7 -4 -830 -3 -1828 l3 -1815 185 -2 c102 -2 191 1
198 5 9 6 13 143 15 618 2 591 3 611 22 639 11 17 25 42 32 58 7 15 16 27 22
27 5 0 15 16 21 35 6 19 15 35 19 35 4 0 16 17 25 38 35 77 50 102 61 102 17
0 62 -51 70 -80 4 -14 13 -32 20 -40 7 -8 18 -32 24 -52 7 -20 19 -42 27 -48
7 -7 14 -20 14 -30 0 -9 9 -29 20 -43 11 -14 20 -32 20 -40 0 -8 9 -26 20 -40
11 -14 20 -34 20 -45 0 -10 9 -31 20 -45 11 -14 20 -32 20 -40 0 -8 9 -26 20
-40 11 -14 23 -39 26 -56 4 -16 15 -38 25 -47 11 -9 19 -27 19 -39 0 -12 9
-30 20 -40 11 -10 20 -26 20 -35 0 -10 9 -29 20 -43 11 -14 20 -32 20 -40 0
-8 8 -25 19 -38 10 -13 24 -41 30 -61 7 -21 16 -38 21 -38 5 0 12 -15 16 -34
3 -19 15 -42 25 -52 10 -9 19 -25 19 -34 0 -10 9 -29 20 -43 11 -14 20 -34 20
-45 0 -10 9 -31 20 -45 11 -14 20 -32 20 -40 0 -8 9 -25 19 -39 11 -13 23 -36
26 -51 4 -14 13 -31 21 -38 8 -6 14 -16 14 -22 0 -6 14 -39 31 -74 l31 -63
201 2 202 3 -2 28 c-1 15 -11 39 -22 54 -12 14 -21 32 -21 40 0 8 -9 26 -20
40 -11 14 -20 33 -20 43 0 10 -8 28 -18 41 -11 13 -22 38 -26 54 -4 17 -13 37
-21 45 -7 8 -16 26 -20 40 -4 14 -16 36 -26 49 -11 13 -19 30 -19 38 0 12 -9
31 -51 113 -48 92 -119 241 -119 250 0 7 -9 23 -20 37 -11 14 -20 34 -20 43 0
10 -7 23 -15 30 -8 6 -17 22 -21 33 -3 12 -14 40 -24 62 -10 22 -23 51 -29 65
-6 14 -15 32 -21 40 -5 8 -14 26 -20 40 -5 14 -14 32 -19 40 -5 8 -21 42 -36
75 -15 33 -31 67 -36 75 -8 14 -14 26 -40 85 -5 11 -13 27 -18 35 -5 8 -21 42
-36 75 -15 33 -31 67 -36 75 -5 8 -14 26 -19 40 -6 14 -15 32 -20 40 -6 8 -15
26 -21 40 -6 14 -19 42 -30 62 -10 20 -19 43 -19 51 0 8 -10 27 -21 41 -26 33
-29 98 -6 124 9 9 21 28 27 42 6 14 24 48 40 75 16 28 36 64 44 80 9 17 27 48
40 70 13 22 34 58 45 80 11 22 25 47 30 55 5 8 12 22 16 30 3 8 17 33 30 55
14 22 34 58 45 80 11 22 31 58 45 80 13 22 32 55 40 74 9 19 23 40 31 48 8 8
14 23 14 33 0 10 5 22 11 26 6 3 18 21 26 38 8 17 28 54 44 81 16 28 36 64 45
80 8 17 26 48 39 70 14 22 29 49 34 60 25 56 34 73 56 110 14 22 32 54 41 70
8 17 26 48 40 70 13 22 33 58 44 80 12 22 28 53 36 68 30 55 23 57 -181 57
-205 0 -191 4 -241 -73 -13 -21 -24 -44 -24 -52 0 -8 -9 -24 -19 -34 -10 -10
-22 -30 -26 -43 -4 -12 -13 -30 -20 -38 -7 -8 -20 -31 -29 -50 -16 -36 -27
-54 -58 -102 -10 -15 -18 -33 -18 -41 0 -8 -9 -22 -20 -32 -11 -10 -20 -22
-20 -26 0 -12 -18 -50 -45 -94 -13 -22 -33 -58 -44 -80 -12 -22 -25 -47 -30
-55 -5 -8 -14 -26 -20 -40 -7 -14 -23 -43 -36 -65 -14 -22 -32 -54 -40 -72 -8
-17 -19 -34 -24 -37 -5 -3 -12 -18 -16 -33 -4 -16 -15 -36 -26 -46 -10 -10
-19 -26 -19 -36 0 -10 -9 -26 -19 -35 -11 -10 -23 -31 -26 -47 -4 -16 -11 -31
-16 -35 -5 -3 -16 -20 -24 -37 -8 -18 -26 -50 -40 -72 -13 -22 -29 -51 -36
-65 -6 -14 -15 -32 -20 -40 -5 -8 -16 -29 -24 -46 -7 -17 -21 -36 -29 -44 -9
-7 -16 -19 -16 -27 0 -8 -11 -31 -25 -51 -14 -20 -25 -43 -25 -50 0 -8 -9 -25
-20 -39 -11 -14 -20 -31 -20 -38 0 -7 -7 -19 -16 -26 -14 -11 -18 -10 -30 6
-12 16 -14 152 -14 849 0 661 -2 831 -12 838 -7 4 -95 8 -196 8 -137 0 -184
-3 -187 -12z"/>
<path d="M8185 13788 c-3 -7 -4 -830 -3 -1828 l3 -1815 525 0 c461 0 530 2
565 16 22 9 61 19 87 23 26 4 50 11 53 16 3 5 22 14 41 20 20 7 57 26 83 43
62 41 177 158 196 199 8 18 18 40 23 48 25 43 51 110 57 145 3 22 13 60 21 84
12 35 15 113 14 405 0 225 -4 376 -11 401 -6 22 -16 67 -24 100 -19 87 -79
196 -149 268 -66 67 -133 117 -158 117 -8 0 -21 6 -27 14 -6 8 -25 19 -41 26
-42 17 -37 37 10 50 22 6 57 22 78 36 48 32 162 151 162 168 0 7 9 25 20 39
11 14 20 34 20 44 0 10 8 34 18 53 26 48 32 139 32 460 0 290 -8 396 -34 445
-9 17 -16 35 -16 42 0 53 -156 263 -196 263 -5 0 -25 11 -44 25 -19 14 -41 25
-51 25 -9 0 -22 7 -29 15 -6 7 -33 17 -58 21 -26 3 -63 14 -82 23 -30 13 -104
16 -558 19 -423 3 -523 1 -527 -10z m903 -357 c43 -5 80 -16 91 -25 10 -9 25
-16 34 -16 39 0 147 -132 147 -181 0 -14 8 -36 18 -49 15 -22 17 -57 20 -294
3 -248 2 -274 -17 -325 -11 -31 -22 -69 -26 -84 -8 -37 -135 -164 -172 -173
-15 -3 -52 -15 -81 -25 -46 -17 -82 -19 -275 -19 -160 0 -226 3 -235 12 -9 9
-12 153 -12 584 0 507 2 574 16 588 13 14 47 16 217 16 111 -1 235 -5 275 -9z
m-37 -1560 c71 -6 115 -14 130 -25 13 -9 34 -16 46 -16 30 0 168 -137 177
-176 4 -16 13 -36 21 -44 20 -24 38 -227 38 -440 0 -227 -16 -392 -42 -429
-10 -14 -21 -37 -24 -52 -10 -40 -95 -118 -166 -152 l-65 -30 -276 -5 c-250
-4 -277 -3 -293 12 -16 16 -17 69 -17 676 0 585 2 660 16 674 13 13 43 16 182
15 92 0 215 -4 273 -8z"/>
<path d="M10047 13793 c-11 -11 -8 -313 3 -334 10 -18 24 -19 325 -19 272 0
316 -2 329 -16 15 -14 16 -174 16 -1642 0 -1298 2 -1627 12 -1634 7 -4 96 -7
198 -5 l185 2 3 1634 c1 1188 5 1638 13 1648 9 10 76 13 335 13 l324 0 0 180
0 180 -868 0 c-478 0 -872 -3 -875 -7z"/>
<path d="M12105 13788 c-3 -7 -4 -830 -3 -1828 l3 -1815 744 -3 c589 -2 746 0
753 10 9 15 11 292 2 326 l-6 22 -533 0 c-472 0 -535 2 -549 16 -14 14 -16 87
-16 653 0 521 2 641 13 650 10 7 147 12 447 13 l433 3 0 167 c-1 92 -4 171 -8
177 -4 8 -140 11 -434 11 -319 0 -430 3 -439 12 -9 9 -12 158 -12 609 0 530 2
599 16 613 14 14 77 16 549 16 l534 0 6 33 c3 17 5 97 3 177 l-3 145 -748 3
c-593 2 -749 0 -752 -10z"/>
<path d="M15985 13788 c-3 -7 -4 -830 -3 -1828 l3 -1815 175 -3 c96 -1 185 0
198 3 l22 5 0 810 c0 790 0 810 19 820 21 11 837 15 865 4 14 -6 16 -86 16
-809 0 -442 3 -810 6 -819 5 -14 31 -16 186 -16 104 0 187 4 199 10 19 11 19
41 19 1820 0 1779 0 1809 -19 1820 -12 6 -95 10 -199 10 -155 0 -181 -2 -186
-16 -3 -9 -6 -377 -6 -819 0 -503 -4 -806 -10 -810 -5 -3 -204 -6 -441 -6
-341 0 -434 3 -441 13 -4 7 -8 376 -8 819 0 726 -2 807 -16 813 -9 3 -96 6
-195 6 -135 0 -181 -3 -184 -12z"/>
<path d="M20007 13753 c-11 -10 -8 -51 3 -58 6 -4 10 8 10 29 0 37 -2 41 -13
29z"/>
<path d="M24110 13756 c0 -10 28 -13 41 -5 10 6 7 9 -13 9 -16 0 -28 -2 -28
-4z"/>
<path d="M21660 13715 c0 -8 5 -15 10 -15 6 0 10 7 10 15 0 8 -4 15 -10 15 -5
0 -10 -7 -10 -15z"/>
<path d="M24215 13710 c3 -5 13 -10 21 -10 8 0 14 5 14 10 0 6 -9 10 -21 10
-11 0 -17 -4 -14 -10z"/>
<path d="M27264 13674 c-4 -14 -2 -30 5 -37 8 -8 11 -1 11 26 0 43 -7 48 -16
11z"/>
<path d="M24315 13670 c3 -5 8 -10 11 -10 2 0 4 5 4 10 0 6 -5 10 -11 10 -5 0
-7 -4 -4 -10z"/>
<path d="M24380 13630 c0 -5 9 -10 21 -10 11 0 17 5 14 10 -3 6 -13 10 -21 10
-8 0 -14 -4 -14 -10z"/>
<path d="M21575 13589 c-10 -15 3 -25 16 -12 7 7 7 13 1 17 -6 3 -14 1 -17 -5z"/>
<path d="M27227 13553 c-11 -10 -8 -43 3 -43 6 0 10 11 10 25 0 26 -2 29 -13
18z"/>
<path d="M24545 13540 c3 -5 10 -10 16 -10 5 0 9 5 9 10 0 6 -7 10 -16 10 -8
0 -12 -4 -9 -10z"/>
<path d="M19960 13446 c0 -30 5 -58 10 -61 6 -4 10 17 10 54 0 34 -4 61 -10
61 -5 0 -10 -24 -10 -54z"/>
<path d="M24670 13460 c0 -5 7 -10 15 -10 8 0 15 5 15 10 0 6 -7 10 -15 10 -8
0 -15 -4 -15 -10z"/>
<path d="M21450 13420 c0 -5 5 -10 10 -10 6 0 10 5 10 10 0 6 -4 10 -10 10 -5
0 -10 -4 -10 -10z"/>
<path d="M27180 13414 c0 -8 5 -12 10 -9 6 3 10 10 10 16 0 5 -4 9 -10 9 -5 0
-10 -7 -10 -16z"/>
<path d="M21407 13383 c-12 -11 -8 -23 8 -23 8 0 15 7 15 15 0 16 -12 20 -23
8z"/>
<path d="M24805 13370 c3 -5 8 -10 11 -10 2 0 4 5 4 10 0 6 -5 10 -11 10 -5 0
-7 -4 -4 -10z"/>
<path d="M27140 13334 c0 -8 5 -12 10 -9 6 4 8 11 5 16 -9 14 -15 11 -15 -7z"/>
<path d="M21365 13330 c-3 -5 1 -10 9 -10 9 0 16 5 16 10 0 6 -4 10 -9 10 -6
0 -13 -4 -16 -10z"/>
<path d="M24845 13330 c3 -5 10 -10 16 -10 5 0 9 5 9 10 0 6 -7 10 -16 10 -8
0 -12 -4 -9 -10z"/>
<path d="M21320 13290 c0 -5 5 -10 10 -10 6 0 10 5 10 10 0 6 -4 10 -10 10 -5
0 -10 -4 -10 -10z"/>
<path d="M21280 13250 c0 -5 5 -10 10 -10 6 0 10 5 10 10 0 6 -4 10 -10 10 -5
0 -10 -4 -10 -10z"/>
<path d="M24970 13250 c0 -5 5 -10 10 -10 6 0 10 5 10 10 0 6 -4 10 -10 10 -5
0 -10 -4 -10 -10z"/>
<path d="M20000 13201 c0 -11 5 -23 10 -26 6 -4 10 5 10 19 0 14 -4 26 -10 26
-5 0 -10 -9 -10 -19z"/>
<path d="M21240 13205 c0 -8 5 -15 10 -15 6 0 10 7 10 15 0 8 -4 15 -10 15 -5
0 -10 -7 -10 -15z"/>
<path d="M25010 13210 c0 -5 7 -10 16 -10 8 0 12 5 9 10 -3 6 -10 10 -16 10
-5 0 -9 -4 -9 -10z"/>
<path d="M27050 13204 c0 -17 22 -14 28 4 2 7 -3 12 -12 12 -9 0 -16 -7 -16
-16z"/>
<path d="M21190 13160 c0 -5 4 -10 9 -10 6 0 13 5 16 10 3 6 -1 10 -9 10 -9 0
-16 -4 -16 -10z"/>
<path d="M27015 13160 c-3 -5 -1 -10 4 -10 6 0 11 5 11 10 0 6 -2 10 -4 10 -3
0 -8 -4 -11 -10z"/>
<path d="M25140 13120 c0 -5 5 -10 10 -10 6 0 10 5 10 10 0 6 -4 10 -10 10 -5
0 -10 -4 -10 -10z"/>
<path d="M20040 13085 c0 -9 5 -15 11 -13 6 2 11 8 11 13 0 5 -5 11 -11 13 -6
2 -11 -4 -11 -13z"/>
<path d="M25180 13080 c0 -5 7 -10 15 -10 8 0 15 5 15 10 0 6 -7 10 -15 10 -8
0 -15 -4 -15 -10z"/>
<path d="M21025 13040 c-3 -5 1 -10 9 -10 9 0 16 5 16 10 0 6 -4 10 -9 10 -6
0 -13 -4 -16 -10z"/>
<path d="M20085 13030 c3 -5 8 -10 11 -10 2 0 4 5 4 10 0 6 -5 10 -11 10 -5 0
-7 -4 -4 -10z"/>
<path d="M25310 12996 c0 -9 5 -16 10 -16 6 0 10 4 10 9 0 6 -4 13 -10 16 -5
3 -10 -1 -10 -9z"/>
<path d="M20948 12993 c7 -3 16 -2 19 1 4 3 -2 6 -13 5 -11 0 -14 -3 -6 -6z"/>
<path d="M26845 12990 c4 -6 11 -8 16 -5 14 9 11 15 -7 15 -8 0 -12 -5 -9 -10z"/>
<path d="M26797 12964 c-8 -8 1 -24 14 -24 5 0 9 7 9 15 0 15 -12 20 -23 9z"/>
<path d="M20865 12950 c4 -6 11 -8 16 -5 14 9 11 15 -7 15 -8 0 -12 -5 -9 -10z"/>
<path d="M20205 12910 c3 -5 13 -10 21 -10 8 0 14 5 14 10 0 6 -9 10 -21 10
-11 0 -17 -4 -14 -10z"/>
<path d="M20770 12910 c0 -5 6 -10 14 -10 8 0 18 5 21 10 3 6 -3 10 -14 10
-12 0 -21 -4 -21 -10z"/>
<path d="M25438 12908 c9 -9 15 -9 24 0 9 9 7 12 -12 12 -19 0 -21 -3 -12 -12z"/>
<path d="M26720 12910 c0 -5 5 -10 10 -10 6 0 10 5 10 10 0 6 -4 10 -10 10 -5
0 -10 -4 -10 -10z"/>
<path d="M20295 12870 c3 -5 18 -10 33 -10 21 0 24 2 12 10 -20 13 -53 13 -45
0z"/>
<path d="M20630 12870 c0 -5 11 -10 25 -10 14 0 25 5 25 10 0 6 -11 10 -25 10
-14 0 -25 -4 -25 -10z"/>
<path d="M25520 12870 c0 -5 7 -10 15 -10 8 0 15 5 15 10 0 6 -7 10 -15 10 -8
0 -15 -4 -15 -10z"/>
<path d="M26630 12870 c0 -5 7 -10 15 -10 8 0 15 5 15 10 0 6 -7 10 -15 10 -8
0 -15 -4 -15 -10z"/>
<path d="M26535 12830 c-4 -6 5 -10 19 -10 14 0 26 5 26 10 0 6 -9 10 -19 10
-11 0 -23 -4 -26 -10z"/>
<path d="M25638 12823 c7 -3 16 -2 19 1 4 3 -2 6 -13 5 -11 0 -14 -3 -6 -6z"/>
<path d="M25732 12789 c2 -6 7 -10 11 -10 4 1 19 1 35 2 l27 1 -25 8 c-36 12
-52 11 -48 -1z"/>
<path d="M26390 12790 c-21 -7 -18 -8 18 -9 26 -1 41 3 37 9 -7 11 -19 11 -55
0z"/>
<path d="M25934 12751 c-2 -2 -1 -8 2 -12 7 -12 275 -11 294 1 13 9 13 10 0
10 -237 4 -292 4 -296 1z"/>
<path d="M22840 12570 c-19 -5 -53 -15 -75 -24 -22 -8 -49 -15 -60 -16 -19 0
-59 -17 -147 -61 -20 -11 -42 -19 -49 -19 -7 0 -20 -7 -30 -16 -20 -18 -71
-47 -111 -64 -16 -7 -28 -16 -28 -21 0 -5 -19 -19 -41 -31 -62 -34 -71 -41
-104 -72 -16 -15 -52 -43 -80 -62 -48 -33 -67 -48 -205 -174 -36 -32 -101 -91
-145 -131 -44 -39 -105 -95 -135 -124 -115 -108 -270 -244 -297 -261 -15 -10
-49 -35 -74 -56 -26 -21 -52 -38 -58 -38 -6 0 -19 -8 -29 -17 -16 -16 -64 -49
-117 -80 -45 -27 -222 -112 -245 -118 -14 -4 -32 -14 -41 -21 -8 -8 -38 -17
-65 -20 -27 -4 -62 -14 -79 -22 -47 -24 -286 -29 -345 -7 -25 9 -61 21 -80 27
-19 5 -42 16 -50 22 -8 7 -30 19 -49 26 -44 17 -176 148 -223 220 -50 76 -118
207 -118 228 0 9 -9 31 -20 47 -11 17 -20 40 -20 53 0 12 -8 39 -19 60 -10 20
-22 55 -26 77 -3 21 -13 51 -20 65 -7 14 -16 50 -20 80 -4 30 -14 73 -22 94
-11 33 -32 219 -30 268 0 7 -1 33 -2 58 l-3 45 -13 -62 c-8 -35 -21 -73 -29
-85 -9 -12 -16 -37 -16 -56 0 -18 -9 -58 -19 -90 -11 -31 -24 -88 -30 -127 -6
-38 -17 -95 -26 -125 -8 -30 -15 -73 -15 -96 0 -24 -9 -80 -19 -126 -11 -46
-22 -144 -25 -221 -4 -75 -12 -149 -18 -165 -18 -40 -18 -882 -1 -937 7 -22
17 -113 22 -202 5 -89 14 -171 20 -182 6 -10 14 -59 17 -108 4 -48 15 -113 24
-143 10 -30 21 -84 25 -119 3 -36 12 -76 20 -90 7 -14 16 -51 20 -81 4 -30 15
-71 25 -90 10 -19 21 -55 25 -80 7 -39 9 -42 15 -20 3 14 7 74 9 133 1 59 9
133 18 165 8 31 21 86 28 122 7 36 20 83 29 105 8 22 15 50 16 63 0 12 9 39
20 59 11 21 20 46 20 55 0 10 9 35 20 55 11 21 20 44 20 51 0 7 9 30 19 50 11
20 25 48 31 62 24 51 48 89 100 156 53 69 147 164 162 164 4 0 15 8 25 19 10
10 29 22 43 26 14 4 31 12 38 18 17 13 127 42 197 51 68 10 273 -26 330 -58
17 -9 38 -16 48 -16 11 0 30 -9 44 -20 14 -11 34 -20 44 -20 10 0 21 -5 25
-11 3 -6 25 -19 48 -30 46 -21 50 -23 165 -99 143 -94 187 -125 203 -140 9 -8
37 -33 64 -55 26 -22 66 -56 88 -75 23 -20 57 -48 76 -62 19 -14 67 -57 106
-95 108 -103 141 -132 239 -213 50 -40 98 -81 107 -89 41 -37 55 -48 98 -76
25 -16 66 -46 91 -67 26 -21 51 -38 57 -38 5 0 15 -7 22 -16 8 -8 27 -22 44
-30 54 -26 97 -52 115 -68 10 -9 23 -16 30 -16 7 0 24 -9 38 -20 14 -11 33
-20 42 -20 9 0 30 -9 46 -20 17 -11 36 -20 44 -20 8 0 33 -9 55 -19 23 -11 64
-24 91 -29 28 -5 79 -17 115 -27 85 -23 308 -18 357 8 18 9 43 17 56 17 13 0
45 11 71 25 26 14 52 25 57 25 5 0 22 8 37 18 15 11 47 32 72 48 24 16 52 36
60 44 132 123 184 177 225 240 16 25 46 65 66 90 20 25 39 55 43 67 4 11 13
24 21 27 8 3 15 12 15 19 0 8 9 22 20 32 11 10 20 24 20 30 0 7 12 28 28 47
29 38 33 45 84 123 18 27 39 57 46 65 7 8 39 49 72 91 67 85 180 196 243 236
58 38 147 83 163 83 7 0 33 9 56 19 25 11 88 24 153 30 61 6 142 16 180 23
107 18 1888 18 1970 0 33 -8 101 -18 150 -23 50 -6 120 -19 156 -29 36 -11 81
-20 100 -20 19 0 54 -9 78 -20 24 -11 55 -20 70 -20 14 0 43 -9 64 -20 20 -11
45 -20 54 -20 10 0 41 -11 68 -25 28 -13 56 -25 63 -25 11 0 60 -23 112 -52 8
-4 33 -17 55 -28 22 -11 49 -25 60 -32 25 -16 120 -78 150 -98 12 -8 39 -27
61 -41 21 -15 50 -37 64 -51 14 -14 65 -58 115 -98 49 -40 107 -89 128 -109
21 -20 62 -58 90 -85 95 -88 121 -111 227 -197 180 -145 371 -259 525 -314 60
-21 263 -57 320 -57 111 0 326 47 430 92 22 10 51 23 65 29 28 12 35 17 135
80 39 25 88 62 110 83 22 21 43 38 47 38 10 0 88 78 88 88 0 4 17 25 38 47 32
34 86 112 139 200 24 39 83 162 83 172 0 6 6 16 14 22 8 7 17 28 21 49 3 20
13 46 20 58 7 12 16 39 20 60 3 21 15 64 25 94 10 30 23 89 29 130 5 41 15 95
20 120 6 25 10 167 11 315 0 214 -3 283 -16 330 -8 33 -19 92 -24 130 -5 39
-16 84 -24 100 -9 17 -16 41 -16 55 0 14 -12 48 -25 75 -14 28 -25 57 -25 65
0 8 -9 29 -20 45 -11 17 -20 36 -20 43 0 8 -9 25 -20 39 -11 14 -20 33 -20 43
0 9 -9 25 -20 35 -11 10 -20 23 -20 29 0 26 -87 133 -200 246 -97 97 -146 140
-158 140 -5 0 -15 7 -22 16 -8 8 -27 22 -44 30 -43 21 -86 46 -116 67 -13 9
-34 17 -45 17 -11 0 -33 9 -50 20 -16 11 -41 20 -55 20 -14 0 -43 9 -65 19
-38 17 -160 33 -280 36 -74 2 -252 -21 -310 -40 -27 -9 -67 -25 -87 -36 -20
-10 -45 -19 -55 -19 -10 0 -30 -8 -43 -17 -25 -18 -65 -41 -110 -65 -14 -7
-46 -28 -72 -48 -26 -19 -63 -46 -83 -60 -19 -14 -63 -50 -97 -80 -33 -30 -70
-62 -82 -70 -12 -8 -38 -31 -58 -50 -20 -19 -87 -82 -148 -140 -61 -58 -138
-131 -170 -162 -50 -48 -188 -164 -255 -213 -11 -8 -33 -25 -50 -38 -16 -13
-40 -27 -52 -31 -13 -4 -23 -11 -23 -17 0 -5 -15 -15 -32 -24 -18 -8 -40 -19
-48 -25 -34 -22 -212 -100 -229 -100 -11 0 -43 -9 -73 -19 -29 -10 -87 -24
-128 -30 -41 -6 -102 -16 -135 -23 -46 -10 -349 -13 -1315 -13 l-1255 0 -47
23 c-26 12 -55 22 -65 23 -10 0 -40 13 -68 29 -27 16 -63 37 -80 46 -86 48
-204 159 -306 289 -50 64 -66 87 -109 150 -8 13 -28 40 -43 61 -25 35 -97 142
-122 183 -5 9 -26 36 -45 61 -20 25 -49 65 -65 89 -42 62 -191 211 -255 254
-30 20 -73 50 -96 65 -22 16 -53 32 -70 36 -16 4 -36 13 -44 21 -8 7 -35 18
-60 23 -25 6 -70 18 -100 27 -59 16 -295 20 -360 5z"/>
<path d="M6364 9428 c-3 -4 22 -9 55 -10 34 -1 68 -2 76 -2 8 -1 15 4 15 9 0
12 -139 15 -146 3z"/>
<path d="M7850 9430 c-13 -9 -13 -10 0 -11 74 -9 114 -4 105 12 -8 12 -86 11
-105 -1z"/>
<path d="M9075 9430 c-7 -12 -3 -13 55 -14 l45 -1 3 -760 c1 -486 6 -763 12
-769 7 -7 10 246 10 749 0 418 3 770 6 783 6 21 4 22 -59 22 -36 0 -69 -4 -72
-10z"/>
<path d="M10425 9430 c-7 -12 -3 -13 55 -14 l45 -1 3 -700 c1 -446 6 -703 12
-709 7 -7 10 226 10 689 0 385 3 710 6 723 6 21 4 22 -59 22 -36 0 -69 -4 -72
-10z"/>
<path d="M11028 8893 c1 -302 3 -618 5 -703 1 -85 4 154 5 532 l2 688 25 6
c58 15 55 55 55 -678 0 -435 3 -669 10 -662 6 6 10 265 12 687 l3 677 -60 0
-60 0 3 -547z"/>
<path d="M11822 9423 c3 -11 10 -16 19 -13 8 3 176 6 374 6 198 1 362 6 365
10 3 5 -164 10 -378 12 -362 2 -383 1 -380 -15z"/>
<path d="M13293 9428 c2 -8 19 -12 44 -10 25 2 44 -2 51 -11 9 -11 11 -221 10
-838 l-3 -824 -52 -3 c-63 -4 -71 -22 -10 -22 23 0 52 -3 65 -6 l22 -6 0 866
0 866 -66 0 c-48 0 -65 -3 -61 -12z"/>
<path d="M14505 9431 c-9 -16 33 -21 103 -13 7 1 10 7 7 12 -8 13 -102 13
-110 1z"/>
<path d="M15660 9438 c0 -2 0 -390 0 -863 l0 -859 57 -1 58 -1 -2 536 c-2 294
-4 594 -5 665 -2 72 -5 -162 -8 -520 l-5 -650 -35 0 -35 0 0 835 0 835 75 0
c41 0 81 -3 89 -5 9 -3 16 3 19 13 3 15 -7 17 -102 17 -58 0 -106 -1 -106 -2z"/>
<path d="M16331 8888 c0 -475 6 -650 20 -628 2 3 6 264 9 580 l5 575 30 0 30
0 0 -835 0 -835 -53 -3 c-47 -3 -54 -1 -59 17 -8 31 -23 25 -23 -9 l0 -30 70
-1 c39 -1 75 -2 80 -3 7 -1 11 287 13 862 l2 862 -62 0 -63 0 1 -552z"/>
<path d="M17454 9428 c-3 -4 20 -9 50 -10 31 -1 64 -2 73 -2 9 -1 18 4 20 11
5 14 -135 15 -143 1z"/>
<path d="M6255 9391 c-7 -12 12 -24 25 -16 11 7 4 25 -10 25 -5 0 -11 -4 -15
-9z"/>
<path d="M17340 9384 c0 -9 5 -14 12 -12 18 6 21 28 4 28 -9 0 -16 -7 -16 -16z"/>
<path d="M6618 9383 c7 -3 16 -2 19 1 4 3 -2 6 -13 5 -11 0 -14 -3 -6 -6z"/>
<path d="M7738 9383 c7 -3 16 -2 19 1 4 3 -2 6 -13 5 -11 0 -14 -3 -6 -6z"/>
<path d="M8048 9383 c7 -3 16 -2 19 1 4 3 -2 6 -13 5 -11 0 -14 -3 -6 -6z"/>
<path d="M14398 9383 c7 -3 16 -2 19 1 4 3 -2 6 -13 5 -11 0 -14 -3 -6 -6z"/>
<path d="M14708 9383 c7 -3 16 -2 19 1 4 3 -2 6 -13 5 -11 0 -14 -3 -6 -6z"/>
<path d="M17698 9383 c7 -3 16 -2 19 1 4 3 -2 6 -13 5 -11 0 -14 -3 -6 -6z"/>
<path d="M6696 9353 c-11 -11 -6 -23 9 -23 8 0 15 4 15 9 0 13 -16 22 -24 14z"/>
<path d="M7650 9345 c0 -9 5 -15 11 -13 6 2 11 8 11 13 0 5 -5 11 -11 13 -6 2
-11 -4 -11 -13z"/>
<path d="M8130 9345 c0 -9 5 -15 11 -13 6 2 11 8 11 13 0 5 -5 11 -11 13 -6 2
-11 -4 -11 -13z"/>
<path d="M14310 9345 c0 -9 5 -15 11 -13 6 2 11 8 11 13 0 5 -5 11 -11 13 -6
2 -11 -4 -11 -13z"/>
<path d="M14787 9354 c-8 -8 1 -24 14 -24 5 0 9 7 9 15 0 15 -12 20 -23 9z"/>
<path d="M11827 9344 c-19 -20 4 -24 123 -24 80 0 130 4 130 10 0 6 -43 10
-109 10 -60 0 -116 2 -123 5 -8 3 -17 2 -21 -1z"/>
<path d="M17780 9340 c0 -5 5 -10 10 -10 6 0 10 5 10 10 0 6 -4 10 -10 10 -5
0 -10 -4 -10 -10z"/>
<path d="M6415 9330 c-4 -6 14 -10 47 -10 38 0 49 3 38 10 -20 13 -77 13 -85
0z"/>
<path d="M7845 9330 c-4 -6 17 -10 55 -10 38 0 59 4 55 10 -3 6 -28 10 -55 10
-27 0 -52 -4 -55 -10z"/>
<path d="M12320 9330 c0 -6 50 -10 130 -10 80 0 130 4 130 10 0 6 -50 10 -130
10 -80 0 -130 -4 -130 -10z"/>
<path d="M14505 9330 c-4 -6 17 -10 55 -10 38 0 59 4 55 10 -3 6 -28 10 -55
10 -27 0 -52 -4 -55 -10z"/>
<path d="M17495 9330 c-4 -6 16 -10 52 -10 41 0 54 3 43 10 -20 13 -87 13 -95
0z"/>
<path d="M15883 9314 c-3 -8 -1 -20 6 -27 8 -8 11 -4 11 16 0 30 -7 35 -17 11z"/>
<path d="M7610 9300 c0 -5 5 -10 10 -10 6 0 10 5 10 10 0 6 -4 10 -10 10 -5 0
-10 -4 -10 -10z"/>
<path d="M8170 9300 c0 -5 5 -10 10 -10 6 0 10 5 10 10 0 6 -4 10 -10 10 -5 0
-10 -4 -10 -10z"/>
<path d="M14270 9300 c0 -5 5 -10 10 -10 6 0 10 5 10 10 0 6 -4 10 -10 10 -5
0 -10 -4 -10 -10z"/>
<path d="M14830 9300 c0 -5 5 -10 10 -10 6 0 10 5 10 10 0 6 -4 10 -10 10 -5
0 -10 -4 -10 -10z"/>
<path d="M6592 9291 c2 -7 7 -12 11 -12 12 1 9 15 -3 20 -7 2 -11 -2 -8 -8z"/>
<path d="M7756 9291 c-4 -5 -2 -12 3 -15 5 -4 12 -2 15 3 4 5 2 12 -3 15 -5 4
-12 2 -15 -3z"/>
<path d="M8025 9290 c-3 -5 1 -10 9 -10 9 0 16 5 16 10 0 6 -4 10 -9 10 -6 0
-13 -4 -16 -10z"/>
<path d="M14415 9290 c-3 -5 1 -10 10 -10 9 0 13 5 10 10 -3 6 -8 10 -10 10
-2 0 -7 -4 -10 -10z"/>
<path d="M14686 9291 c-4 -5 -2 -12 3 -15 5 -4 12 -2 15 3 4 5 2 12 -3 15 -5
4 -12 2 -15 -3z"/>
<path d="M17680 9291 c0 -6 5 -13 10 -16 6 -3 10 1 10 9 0 9 -4 16 -10 16 -5
0 -10 -4 -10 -9z"/>
<path d="M12258 8514 l-3 -769 -52 -3 c-67 -4 -69 -21 -3 -24 28 -1 57 -2 65
-2 14 -1 15 86 15 774 0 493 -4 778 -10 784 -6 6 -11 -256 -12 -760z"/>
<path d="M6135 9261 c-6 -11 9 -23 19 -14 9 9 7 23 -3 23 -6 0 -12 -4 -16 -9z"/>
<path d="M17220 9255 c0 -8 5 -15 10 -15 6 0 10 7 10 15 0 8 -4 15 -10 15 -5
0 -10 -7 -10 -15z"/>
<path d="M7570 9220 c0 -11 5 -20 10 -20 6 0 10 9 10 20 0 11 -4 20 -10 20 -5
0 -10 -9 -10 -20z"/>
<path d="M8214 9229 c-3 -6 -1 -16 5 -22 8 -8 11 -5 11 11 0 24 -5 28 -16 11z"/>
<path d="M14230 9221 c0 -12 5 -21 10 -21 6 0 10 6 10 14 0 8 -4 18 -10 21 -5
3 -10 -3 -10 -14z"/>
<path d="M14870 9220 c0 -11 5 -20 10 -20 6 0 10 9 10 20 0 11 -4 20 -10 20
-5 0 -10 -9 -10 -20z"/>
<path d="M6230 9195 c0 -8 5 -15 10 -15 6 0 10 7 10 15 0 8 -4 15 -10 15 -5 0
-10 -7 -10 -15z"/>
<path d="M6780 9186 c0 -14 5 -26 10 -26 6 0 10 9 10 19 0 11 -4 23 -10 26 -6
4 -10 -5 -10 -19z"/>
<path d="M17320 9194 c0 -8 5 -12 10 -9 6 3 10 10 10 16 0 5 -4 9 -10 9 -5 0
-10 -7 -10 -16z"/>
<path d="M17872 9180 c0 -19 2 -27 5 -17 2 9 2 25 0 35 -3 9 -5 1 -5 -18z"/>
<path d="M15930 9175 c1 -26 2 -28 11 -12 8 14 8 22 0 30 -8 8 -11 3 -11 -18z"/>
<path d="M6683 9164 c-3 -8 -1 -20 6 -27 8 -8 11 -4 11 16 0 30 -7 35 -17 11z"/>
<path d="M7667 9167 c-3 -7 -2 -19 3 -26 5 -9 9 -8 14 5 4 9 3 21 -2 26 -6 6
-12 4 -15 -5z"/>
<path d="M8120 9155 c0 -15 4 -24 10 -20 6 3 10 12 10 20 0 8 -4 17 -10 20 -6
4 -10 -5 -10 -20z"/>
<path d="M14324 9167 c-4 -10 -2 -23 3 -28 14 -14 24 13 13 32 -7 11 -10 10
-16 -4z"/>
<path d="M14776 9171 c-4 -6 -3 -19 3 -28 9 -17 10 -17 17 0 8 21 -10 45 -20
28z"/>
<path d="M17770 9156 c0 -14 5 -26 10 -26 6 0 10 9 10 19 0 11 -4 23 -10 26
-6 4 -10 -5 -10 -19z"/>
<path d="M6096 9115 c-10 -27 -7 -143 4 -150 11 -7 11 -4 12 93 1 65 -5 85
-16 57z"/>
<path d="M17180 9040 c0 -47 4 -80 10 -80 6 0 10 33 10 80 0 47 -4 80 -10 80
-6 0 -10 -33 -10 -80z"/>
<path d="M15970 9056 c0 -14 5 -26 10 -26 6 0 10 9 10 19 0 11 -4 23 -10 26
-6 4 -10 -5 -10 -19z"/>
<path d="M7530 9065 c0 -3 0 -221 0 -485 0 -264 0 -485 0 -491 0 -5 5 -7 10
-4 6 4 10 180 10 496 0 319 -3 489 -10 489 -5 0 -10 -2 -10 -5z"/>
<path d="M8252 8578 c2 -271 7 -492 12 -490 4 1 9 223 10 492 1 388 -2 490
-12 490 -10 0 -12 -102 -10 -492z"/>
<path d="M14190 9068 c-5 -55 1 -979 7 -980 4 -2 9 219 11 490 1 326 -1 492
-8 492 -5 0 -10 -1 -10 -2z"/>
<path d="M14910 8581 c0 -316 4 -492 10 -496 6 -3 10 -3 10 2 5 348 -1 978
-10 981 -7 3 -10 -149 -10 -487z"/>
<path d="M6726 9041 c-4 -5 -2 -12 3 -15 5 -4 12 -2 15 3 4 5 2 12 -3 15 -5 4
-12 2 -15 -3z"/>
<path d="M6776 9041 c-3 -5 1 -11 9 -15 9 -3 15 0 15 9 0 16 -16 20 -24 6z"/>
<path d="M17810 9040 c0 -6 7 -10 15 -10 8 0 15 2 15 4 0 2 -7 6 -15 10 -8 3
-15 1 -15 -4z"/>
<path d="M17862 9041 c4 -13 18 -16 19 -4 0 4 -5 9 -11 12 -7 2 -11 -2 -8 -8z"/>
<path d="M16010 8931 c0 -11 5 -23 10 -26 6 -3 10 3 10 14 0 11 -4 23 -10 26
-5 3 -10 -3 -10 -14z"/>
<path d="M15914 8917 c-8 -21 2 -35 16 -21 5 5 6 15 0 24 -8 12 -10 12 -16 -3z"/>
<path d="M6242 8890 c0 -14 2 -19 5 -12 2 6 2 18 0 25 -3 6 -5 1 -5 -13z"/>
<path d="M17321 8894 c0 -11 3 -14 6 -6 3 7 2 16 -1 19 -3 4 -6 -2 -5 -13z"/>
<path d="M6142 8845 c0 -16 2 -22 5 -12 2 9 2 23 0 30 -3 6 -5 -1 -5 -18z"/>
<path d="M26016 8842 c-9 -16 13 -19 94 -12 41 4 59 7 39 8 -20 1 -56 5 -81 8
-27 4 -48 2 -52 -4z"/>
<path d="M26355 8840 l-60 -6 73 -4 c40 -3 77 -3 82 -2 16 6 1 22 -18 20 -9
-1 -44 -4 -77 -8z"/>
<path d="M16053 8804 c-3 -8 -1 -20 6 -27 8 -8 11 -4 11 16 0 30 -7 35 -17 11z"/>
<path d="M15956 8795 c-8 -22 3 -40 16 -27 7 7 7 16 1 27 -9 16 -10 16 -17 0z"/>
<path d="M26581 8801 c-11 -7 -9 -10 8 -16 25 -8 36 -2 26 14 -8 13 -15 14
-34 2z"/>
<path d="M25857 8789 c8 -8 19 -8 40 -1 28 10 28 10 -11 11 -29 1 -37 -2 -29
-10z"/>
<path d="M6180 8780 c0 -5 5 -10 11 -10 5 0 7 5 4 10 -3 6 -8 10 -11 10 -2 0
-4 -4 -4 -10z"/>
<path d="M17260 8780 c0 -5 5 -10 10 -10 6 0 10 5 10 10 0 6 -4 10 -10 10 -5
0 -10 -4 -10 -10z"/>
<path d="M6320 8760 c0 -5 5 -10 11 -10 5 0 7 5 4 10 -3 6 -8 10 -11 10 -2 0
-4 -4 -4 -10z"/>
<path d="M17405 8761 c-3 -5 -1 -12 5 -16 5 -3 10 1 10 9 0 18 -6 21 -15 7z"/>
<path d="M20450 8752 c0 -4 61 -8 135 -8 74 0 135 4 135 8 0 4 -61 8 -135 8
-74 0 -135 -4 -135 -8z"/>
<path d="M25744 8751 c3 -5 15 -7 26 -4 28 7 25 13 -6 13 -14 0 -23 -4 -20 -9z"/>
<path d="M26705 8750 c3 -5 13 -10 21 -10 8 0 14 5 14 10 0 6 -9 10 -21 10
-11 0 -17 -4 -14 -10z"/>
<path d="M6365 8710 c3 -5 8 -10 11 -10 2 0 4 5 4 10 0 6 -5 10 -11 10 -5 0
-7 -4 -4 -10z"/>
<path d="M17450 8709 c0 -5 5 -7 10 -4 6 3 10 8 10 11 0 2 -4 4 -10 4 -5 0
-10 -5 -10 -11z"/>
<path d="M20330 8710 c0 -5 9 -10 20 -10 11 0 20 5 20 10 0 6 -9 10 -20 10
-11 0 -20 -4 -20 -10z"/>
<path d="M20815 8710 c3 -5 15 -10 26 -10 10 0 19 5 19 10 0 6 -12 10 -26 10
-14 0 -23 -4 -19 -10z"/>
<path d="M25645 8710 c-3 -5 3 -10 14 -10 12 0 21 5 21 10 0 6 -6 10 -14 10
-8 0 -18 -4 -21 -10z"/>
<path d="M26790 8710 c0 -5 7 -10 15 -10 8 0 15 5 15 10 0 6 -7 10 -15 10 -8
0 -15 -4 -15 -10z"/>
<path d="M16097 8687 c-3 -8 -1 -20 4 -28 6 -10 9 -7 9 14 0 29 -5 35 -13 14z"/>
<path d="M16000 8655 c0 -15 4 -24 10 -20 6 3 10 12 10 20 0 8 -4 17 -10 20
-6 4 -10 -5 -10 -20z"/>
<path d="M20930 8670 c0 -5 9 -10 20 -10 11 0 20 5 20 10 0 6 -9 10 -20 10
-11 0 -20 -4 -20 -10z"/>
<path d="M21025 8630 c-3 -5 1 -10 10 -10 9 0 13 5 10 10 -3 6 -8 10 -10 10
-2 0 -7 -4 -10 -10z"/>
<path d="M26922 8628 c6 -18 28 -21 28 -4 0 9 -7 16 -16 16 -9 0 -14 -5 -12
-12z"/>
<path d="M6525 8590 c-3 -5 1 -10 10 -10 9 0 13 5 10 10 -3 6 -8 10 -10 10 -2
0 -7 -4 -10 -10z"/>
<path d="M17615 8580 c3 -5 8 -10 11 -10 2 0 4 5 4 10 0 6 -5 10 -11 10 -5 0
-7 -4 -4 -10z"/>
<path d="M25438 8583 c7 -3 16 -2 19 1 4 3 -2 6 -13 5 -11 0 -14 -3 -6 -6z"/>
<path d="M16140 8545 c0 -15 4 -24 10 -20 6 3 10 12 10 20 0 8 -4 17 -10 20
-6 4 -10 -5 -10 -20z"/>
<path d="M6570 8545 c0 -9 5 -15 11 -13 6 2 11 8 11 13 0 5 -5 11 -11 13 -6 2
-11 -4 -11 -13z"/>
<path d="M17656 8552 c-3 -6 -1 -14 5 -17 15 -10 25 3 12 16 -7 7 -13 7 -17 1z"/>
<path d="M20170 8545 c0 -8 5 -15 10 -15 6 0 10 7 10 15 0 8 -4 15 -10 15 -5
0 -10 -7 -10 -15z"/>
<path d="M16040 8530 c0 -11 5 -20 10 -20 6 0 10 9 10 20 0 11 -4 20 -10 20
-5 0 -10 -9 -10 -20z"/>
<path d="M21155 8540 c3 -5 10 -10 16 -10 5 0 9 5 9 10 0 6 -7 10 -16 10 -8 0
-12 -4 -9 -10z"/>
<path d="M25350 8540 c0 -5 4 -10 9 -10 6 0 13 5 16 10 3 6 -1 10 -9 10 -9 0
-16 -4 -16 -10z"/>
<path d="M6430 8530 c0 -5 5 -10 11 -10 5 0 7 5 4 10 -3 6 -8 10 -11 10 -2 0
-4 -4 -4 -10z"/>
<path d="M17510 8530 c0 -5 5 -10 10 -10 6 0 10 5 10 10 0 6 -4 10 -10 10 -5
0 -10 -4 -10 -10z"/>
<path d="M6615 8500 c3 -5 8 -10 11 -10 2 0 4 5 4 10 0 6 -5 10 -11 10 -5 0
-7 -4 -4 -10z"/>
<path d="M17700 8500 c0 -5 5 -10 10 -10 6 0 10 5 10 10 0 6 -4 10 -10 10 -5
0 -10 -4 -10 -10z"/>
<path d="M20130 8464 c0 -8 5 -12 10 -9 6 4 8 11 5 16 -9 14 -15 11 -15 -7z"/>
<path d="M6660 8460 c0 -5 5 -10 10 -10 6 0 10 5 10 10 0 6 -4 10 -10 10 -5 0
-10 -4 -10 -10z"/>
<path d="M17740 8460 c0 -5 5 -10 10 -10 6 0 10 5 10 10 0 6 -4 10 -10 10 -5
0 -10 -4 -10 -10z"/>
<path d="M21280 8460 c0 -5 5 -10 10 -10 6 0 10 5 10 10 0 6 -4 10 -10 10 -5
0 -10 -4 -10 -10z"/>
<path d="M25220 8460 c0 -5 7 -10 15 -10 8 0 15 5 15 10 0 6 -7 10 -15 10 -8
0 -15 -4 -15 -10z"/>
<path d="M17600 8446 c0 -9 5 -16 10 -16 6 0 10 4 10 9 0 6 -4 13 -10 16 -5 3
-10 -1 -10 -9z"/>
<path d="M6515 8440 c3 -5 8 -10 11 -10 2 0 4 5 4 10 0 6 -5 10 -11 10 -5 0
-7 -4 -4 -10z"/>
<path d="M16180 8414 c0 -14 4 -23 10 -19 6 3 10 15 10 26 0 10 -4 19 -10 19
-5 0 -10 -12 -10 -26z"/>
<path d="M6700 8420 c0 -5 5 -10 10 -10 6 0 10 5 10 10 0 6 -4 10 -10 10 -5 0
-10 -4 -10 -10z"/>
<path d="M17782 8421 c4 -13 18 -16 19 -4 0 4 -5 9 -11 12 -7 2 -11 -2 -8 -8z"/>
<path d="M21322 8421 c4 -13 18 -16 19 -4 0 4 -5 9 -11 12 -7 2 -11 -2 -8 -8z"/>
<path d="M27140 8420 c0 -5 5 -10 10 -10 6 0 10 5 10 10 0 6 -4 10 -10 10 -5
0 -10 -4 -10 -10z"/>
<path d="M16080 8401 c0 -11 5 -23 10 -26 6 -4 10 5 10 19 0 14 -4 26 -10 26
-5 0 -10 -9 -10 -19z"/>
<path d="M6555 8400 c3 -5 8 -10 11 -10 2 0 4 5 4 10 0 6 -5 10 -11 10 -5 0
-7 -4 -4 -10z"/>
<path d="M17640 8400 c0 -5 5 -10 10 -10 6 0 10 5 10 10 0 6 -4 10 -10 10 -5
0 -10 -4 -10 -10z"/>
<path d="M6740 8371 c0 -12 5 -21 10 -21 6 0 10 6 10 14 0 8 -4 18 -10 21 -5
3 -10 -3 -10 -14z"/>
<path d="M17824 8379 c-3 -6 -1 -16 5 -22 8 -8 11 -5 11 11 0 24 -5 28 -16 11z"/>
<path d="M21366 8381 c-4 -5 -2 -12 3 -15 5 -4 12 -2 15 3 4 5 2 12 -3 15 -5
4 -12 2 -15 -3z"/>
<path d="M25097 8384 c-8 -8 1 -24 14 -24 5 0 9 7 9 15 0 15 -12 20 -23 9z"/>
<path d="M27180 8376 c0 -9 5 -16 10 -16 6 0 10 4 10 9 0 6 -4 13 -10 16 -5 3
-10 -1 -10 -9z"/>
<path d="M6600 8355 c0 -8 5 -15 10 -15 6 0 10 7 10 15 0 8 -4 15 -10 15 -5 0
-10 -7 -10 -15z"/>
<path d="M17680 8361 c0 -6 5 -13 10 -16 6 -3 10 1 10 9 0 9 -4 16 -10 16 -5
0 -10 -4 -10 -9z"/>
<path d="M20091 8325 c1 -48 1 -49 10 -17 6 21 6 39 0 50 -8 13 -10 5 -10 -33z"/>
<path d="M21410 8336 c0 -9 5 -16 10 -16 6 0 10 4 10 9 0 6 -4 13 -10 16 -5 3
-10 -1 -10 -9z"/>
<path d="M16220 8290 c0 -11 5 -20 10 -20 6 0 10 9 10 20 0 11 -4 20 -10 20
-5 0 -10 -9 -10 -20z"/>
<path d="M27226 8301 c-4 -7 -5 -15 -2 -18 9 -9 19 4 14 18 -4 11 -6 11 -12 0z"/>
<path d="M6780 8276 c0 -14 5 -28 10 -31 6 -4 10 7 10 24 0 17 -4 31 -10 31
-5 0 -10 -11 -10 -24z"/>
<path d="M16123 8284 c-3 -8 -1 -20 6 -27 8 -8 11 -4 11 16 0 30 -7 35 -17 11z"/>
<path d="M17867 8268 c8 -46 13 -48 13 -5 0 21 -4 37 -10 37 -5 0 -7 -14 -3
-32z"/>
<path d="M21450 8290 c0 -5 5 -10 10 -10 6 0 10 5 10 10 0 6 -4 10 -10 10 -5
0 -10 -4 -10 -10z"/>
<path d="M24970 8290 c0 -5 5 -10 10 -10 6 0 10 5 10 10 0 6 -4 10 -10 10 -5
0 -10 -4 -10 -10z"/>
<path d="M21490 8250 c0 -5 5 -10 10 -10 6 0 10 5 10 10 0 6 -4 10 -10 10 -5
0 -10 -4 -10 -10z"/>
<path d="M24885 8251 c-3 -5 -1 -12 5 -16 12 -7 30 2 30 16 0 12 -27 12 -35 0z"/>
<path d="M21530 8210 c0 -5 5 -10 11 -10 5 0 7 5 4 10 -3 6 -8 10 -11 10 -2 0
-4 -4 -4 -10z"/>
<path d="M6694 8110 c0 -52 1 -74 3 -47 2 26 2 68 0 95 -2 26 -3 4 -3 -48z"/>
<path d="M17774 8110 c0 -52 1 -74 3 -47 2 26 2 68 0 95 -2 26 -3 4 -3 -48z"/>
<path d="M6092 8111 c-1 -39 3 -73 8 -76 11 -7 11 -3 13 82 0 31 -4 58 -9 60
-5 2 -11 -27 -12 -66z"/>
<path d="M6190 8130 c0 -27 5 -50 10 -50 6 0 10 23 10 50 0 28 -4 50 -10 50
-5 0 -10 -22 -10 -50z"/>
<path d="M17180 8105 c0 -43 4 -75 10 -75 6 0 9 31 8 75 0 41 -5 75 -10 75 -4
0 -8 -34 -8 -75z"/>
<path d="M17278 8173 c-3 -4 -2 -30 1 -58 l5 -50 7 50 c6 45 -2 80 -13 58z"/>
<path d="M21576 8173 c-11 -11 -6 -23 9 -23 8 0 15 4 15 9 0 13 -16 22 -24 14z"/>
<path d="M16170 8146 c0 -22 3 -27 11 -19 8 8 8 16 0 30 -9 16 -10 14 -11 -11z"/>
<path d="M24758 8158 c9 -9 15 -9 24 0 9 9 7 12 -12 12 -19 0 -21 -3 -12 -12z"/>
<path d="M27307 8138 c-3 -8 -2 -21 3 -27 11 -19 23 5 12 25 -8 14 -10 14 -15
2z"/>
<path d="M24680 8120 c0 -5 5 -10 10 -10 6 0 10 5 10 10 0 6 -4 10 -10 10 -5
0 -10 -4 -10 -10z"/>
<path d="M20089 7995 c-3 -33 -2 -67 2 -75 14 -28 20 11 11 75 l-8 60 -5 -60z"/>
<path d="M21660 8040 c0 -5 5 -10 10 -10 6 0 10 5 10 10 0 6 -4 10 -10 10 -5
0 -10 -4 -10 -10z"/>
<path d="M16210 8016 c0 -14 5 -26 10 -26 6 0 10 9 10 19 0 11 -4 23 -10 26
-6 4 -10 -5 -10 -19z"/>
<path d="M27350 8008 c0 -16 5 -28 10 -28 13 0 13 20 0 40 -8 12 -10 9 -10
-12z"/>
<path d="M7666 8011 c-4 -6 -3 -18 2 -27 8 -15 10 -14 16 2 8 20 -8 42 -18 25z"/>
<path d="M8120 7995 c1 -26 2 -28 11 -12 8 14 8 22 0 30 -8 8 -11 3 -11 -18z"/>
<path d="M14326 8011 c-4 -6 -3 -18 2 -27 8 -14 10 -14 15 -2 7 19 -8 44 -17
29z"/>
<path d="M14777 8007 c-3 -7 -2 -19 3 -26 5 -9 9 -8 14 5 4 9 3 21 -2 26 -6 6
-12 4 -15 -5z"/>
<path d="M24466 8001 c-4 -5 -2 -12 3 -15 5 -4 12 -2 15 3 4 5 2 12 -3 15 -5
4 -12 2 -15 -3z"/>
<path d="M17872 7975 c0 -16 2 -22 5 -12 2 9 2 23 0 30 -3 6 -5 -1 -5 -18z"/>
<path d="M6780 7970 c0 -11 5 -20 10 -20 6 0 10 9 10 20 0 11 -4 20 -10 20 -5
0 -10 -9 -10 -20z"/>
<path d="M10436 7967 c-7 -31 1 -54 15 -40 5 5 5 22 0 38 l-8 30 -7 -28z"/>
<path d="M17321 7954 c0 -11 3 -14 6 -6 3 7 2 16 -1 19 -3 4 -6 -2 -5 -13z"/>
<path d="M24386 7963 c-11 -11 -6 -23 9 -23 8 0 15 4 15 9 0 13 -16 22 -24 14z"/>
<path d="M6235 7950 c3 -5 8 -10 11 -10 2 0 4 5 4 10 0 6 -5 10 -11 10 -5 0
-7 -4 -4 -10z"/>
<path d="M7570 7941 c0 -12 5 -21 10 -21 6 0 10 6 10 14 0 8 -4 18 -10 21 -5
3 -10 -3 -10 -14z"/>
<path d="M8215 7947 c-4 -10 -5 -21 -1 -24 10 -10 18 4 13 24 -4 17 -4 17 -12
0z"/>
<path d="M14230 7941 c0 -12 5 -21 10 -21 6 0 10 6 10 14 0 8 -4 18 -10 21 -5
3 -10 -3 -10 -14z"/>
<path d="M14875 7947 c-4 -10 -5 -21 -1 -24 10 -10 18 4 13 24 -4 17 -4 17
-12 0z"/>
<path d="M11080 7920 c0 -11 2 -20 4 -20 2 0 6 9 9 20 3 11 1 20 -4 20 -5 0
-9 -9 -9 -20z"/>
<path d="M10576 7921 c-4 -5 -2 -12 3 -15 5 -4 12 -2 15 3 4 5 2 12 -3 15 -5
4 -12 2 -15 -3z"/>
<path d="M21746 7921 c-4 -7 -5 -15 -2 -18 9 -9 19 4 14 18 -4 11 -6 11 -12 0z"/>
<path d="M6135 7910 c-4 -6 -3 -16 3 -22 6 -6 12 -6 17 2 4 6 3 16 -3 22 -6 6
-12 6 -17 -2z"/>
<path d="M17220 7900 c0 -11 5 -20 10 -20 6 0 10 9 10 20 0 11 -4 20 -10 20
-5 0 -10 -9 -10 -20z"/>
<path d="M24300 7910 c0 -5 7 -10 15 -10 8 0 15 5 15 10 0 6 -7 10 -15 10 -8
0 -15 -4 -15 -10z"/>
<path d="M16250 7891 c0 -11 5 -23 10 -26 6 -4 10 5 10 19 0 14 -4 26 -10 26
-5 0 -10 -9 -10 -19z"/>
<path d="M7750 7870 c0 -5 7 -10 16 -10 8 0 12 5 9 10 -3 6 -10 10 -16 10 -5
0 -9 -4 -9 -10z"/>
<path d="M14410 7870 c0 -5 7 -10 16 -10 8 0 12 5 9 10 -3 6 -10 10 -16 10 -5
0 -9 -4 -9 -10z"/>
<path d="M24210 7870 c0 -5 7 -10 15 -10 8 0 15 5 15 10 0 6 -7 10 -15 10 -8
0 -15 -4 -15 -10z"/>
<path d="M27390 7840 c0 -22 5 -40 10 -40 6 0 10 18 10 40 0 22 -4 40 -10 40
-5 0 -10 -18 -10 -40z"/>
<path d="M7610 7855 c0 -8 5 -15 10 -15 6 0 10 7 10 15 0 8 -4 15 -10 15 -5 0
-10 -7 -10 -15z"/>
<path d="M8176 7861 c-4 -7 -5 -15 -2 -18 9 -9 19 4 14 18 -4 11 -6 11 -12 0z"/>
<path d="M10477 7864 c-8 -8 1 -24 14 -24 5 0 9 7 9 15 0 15 -12 20 -23 9z"/>
<path d="M14270 7855 c0 -8 5 -15 10 -15 6 0 10 7 10 15 0 8 -4 15 -10 15 -5
0 -10 -7 -10 -15z"/>
<path d="M14830 7855 c0 -8 5 -15 10 -15 6 0 10 7 10 15 0 8 -4 15 -10 15 -5
0 -10 -7 -10 -15z"/>
<path d="M11040 7850 c0 -5 5 -10 10 -10 6 0 10 5 10 10 0 6 -4 10 -10 10 -5
0 -10 -4 -10 -10z"/>
<path d="M17260 7850 c0 -5 5 -10 10 -10 6 0 10 5 10 10 0 6 -4 10 -10 10 -5
0 -10 -4 -10 -10z"/>
<path d="M9460 7830 l-225 -6 222 -2 223 -2 6 -25 c14 -56 20 -55 -305 -55
-189 0 -302 -4 -306 -10 -4 -7 96 -10 292 -10 164 0 308 -3 321 -6 21 -6 22
-4 22 60 0 47 -4 65 -12 64 -7 -1 -114 -5 -238 -8z"/>
<path d="M6418 7823 c17 -2 47 -2 65 0 17 2 3 4 -33 4 -36 0 -50 -2 -32 -4z"/>
<path d="M6696 7823 c-11 -11 -6 -23 9 -23 8 0 15 4 15 9 0 13 -16 22 -24 14z"/>
<path d="M7868 7823 c17 -2 47 -2 65 0 17 2 3 4 -33 4 -36 0 -50 -2 -32 -4z"/>
<path d="M10738 7817 c35 -7 66 -7 95 0 38 10 33 11 -53 10 -92 0 -93 0 -42
-10z"/>
<path d="M14528 7823 c17 -2 47 -2 65 0 17 2 3 4 -33 4 -36 0 -50 -2 -32 -4z"/>
<path d="M17498 7823 c17 -2 47 -2 65 0 17 2 3 4 -33 4 -36 0 -50 -2 -32 -4z"/>
<path d="M17786 7821 c-4 -7 -5 -15 -2 -18 9 -9 19 4 14 18 -4 11 -6 11 -12 0z"/>
<path d="M24118 7823 c6 -2 18 -2 25 0 6 3 1 5 -13 5 -14 0 -19 -2 -12 -5z"/>
<path d="M7650 7810 c0 -5 5 -10 10 -10 6 0 10 5 10 10 0 6 -4 10 -10 10 -5 0
-10 -4 -10 -10z"/>
<path d="M8130 7810 c0 -5 5 -10 10 -10 6 0 10 5 10 10 0 6 -4 10 -10 10 -5 0
-10 -4 -10 -10z"/>
<path d="M10510 7810 c0 -5 7 -10 15 -10 8 0 15 5 15 10 0 6 -7 10 -15 10 -8
0 -15 -4 -15 -10z"/>
<path d="M14310 7810 c0 -5 5 -10 10 -10 6 0 10 5 10 10 0 6 -4 10 -10 10 -5
0 -10 -4 -10 -10z"/>
<path d="M14790 7810 c0 -5 5 -10 10 -10 6 0 10 5 10 10 0 6 -4 10 -10 10 -5
0 -10 -4 -10 -10z"/>
<path d="M17300 7810 c0 -5 5 -10 10 -10 6 0 10 5 10 10 0 6 -4 10 -10 10 -5
0 -10 -4 -10 -10z"/>
<path d="M20130 7783 c0 -18 5 -33 10 -33 13 0 13 30 0 50 -7 11 -10 7 -10
-17z"/>
<path d="M23910 7780 c0 -12 67 -12 95 0 14 6 4 9 -37 9 -33 1 -58 -3 -58 -9z"/>
<path d="M6260 7770 c0 -5 7 -10 15 -10 8 0 15 5 15 10 0 6 -7 10 -15 10 -8 0
-15 -4 -15 -10z"/>
<path d="M6610 7770 c0 -5 7 -10 15 -10 8 0 15 5 15 10 0 6 -7 10 -15 10 -8 0
-15 -4 -15 -10z"/>
<path d="M7730 7770 c0 -5 5 -10 10 -10 6 0 10 5 10 10 0 6 -4 10 -10 10 -5 0
-10 -4 -10 -10z"/>
<path d="M8050 7770 c0 -5 5 -10 10 -10 6 0 10 5 10 10 0 6 -4 10 -10 10 -5 0
-10 -4 -10 -10z"/>
<path d="M10560 7770 c0 -5 7 -10 15 -10 8 0 15 5 15 10 0 6 -7 10 -15 10 -8
0 -15 -4 -15 -10z"/>
<path d="M10950 7770 c0 -5 7 -10 15 -10 8 0 15 5 15 10 0 6 -7 10 -15 10 -8
0 -15 -4 -15 -10z"/>
<path d="M14390 7770 c0 -5 5 -10 10 -10 6 0 10 5 10 10 0 6 -4 10 -10 10 -5
0 -10 -4 -10 -10z"/>
<path d="M14710 7770 c0 -5 5 -10 10 -10 6 0 10 5 10 10 0 6 -4 10 -10 10 -5
0 -10 -4 -10 -10z"/>
<path d="M17340 7770 c0 -5 9 -10 20 -10 11 0 20 5 20 10 0 6 -9 10 -20 10
-11 0 -20 -4 -20 -10z"/>
<path d="M17695 7770 c-3 -5 1 -10 9 -10 9 0 16 5 16 10 0 6 -4 10 -9 10 -6 0
-13 -4 -16 -10z"/>
<path d="M21880 7740 c0 -13 789 -13 810 0 10 6 -127 10 -397 10 -269 0 -413
-3 -413 -10z"/>
<path d="M6410 7730 c0 -5 25 -10 55 -10 30 0 55 5 55 10 0 6 -25 10 -55 10
-30 0 -55 -4 -55 -10z"/>
<path d="M7850 7730 c0 -5 23 -10 50 -10 28 0 50 5 50 10 0 6 -22 10 -50 10
-27 0 -50 -4 -50 -10z"/>
<path d="M10670 7729 c0 -5 45 -9 100 -9 55 0 100 3 100 8 0 4 -45 8 -100 8
-55 1 -100 -3 -100 -7z"/>
<path d="M14510 7730 c0 -5 23 -10 50 -10 28 0 50 5 50 10 0 6 -22 10 -50 10
-27 0 -50 -4 -50 -10z"/>
<path d="M17490 7730 c0 -5 25 -10 55 -10 30 0 55 5 55 10 0 6 -25 10 -55 10
-30 0 -55 -4 -55 -10z"/>
<path d="M20170 7651 c0 -12 5 -21 10 -21 6 0 10 6 10 14 0 8 -4 18 -10 21 -5
3 -10 -3 -10 -14z"/>
<path d="M20210 7556 c0 -8 5 -18 10 -21 6 -3 10 3 10 14 0 12 -4 21 -10 21
-5 0 -10 -6 -10 -14z"/>
<path d="M27430 7530 c0 -16 5 -30 10 -30 6 0 10 14 10 30 0 17 -4 30 -10 30
-5 0 -10 -13 -10 -30z"/>
<path d="M20256 7465 c4 -8 8 -15 10 -15 2 0 4 7 4 15 0 8 -4 15 -10 15 -5 0
-7 -7 -4 -15z"/>
<path d="M20300 7384 c0 -8 5 -12 10 -9 6 4 8 11 5 16 -9 14 -15 11 -15 -7z"/>
<path d="M20340 7311 c0 -5 5 -13 10 -16 6 -3 10 -2 10 4 0 5 -4 13 -10 16 -5
3 -10 2 -10 -4z"/>
<path d="M23283 7308 c2 -7 9 -13 15 -12 7 1 171 2 365 4 219 2 326 6 282 10
-38 4 -204 8 -368 9 -235 1 -298 -2 -294 -11z"/>
<path d="M24165 7271 c-8 -14 10 -22 30 -15 13 5 14 8 3 15 -17 11 -26 11 -33
0z"/>
<path d="M27390 7229 c0 -24 4 -38 10 -34 6 3 10 22 10 41 0 19 -4 34 -10 34
-5 0 -10 -18 -10 -41z"/>
<path d="M24295 7220 c3 -5 13 -10 21 -10 8 0 14 5 14 10 0 6 -9 10 -21 10
-11 0 -17 -4 -14 -10z"/>
<path d="M20420 7181 c0 -6 5 -13 10 -16 6 -3 10 1 10 9 0 9 -4 16 -10 16 -5
0 -10 -4 -10 -9z"/>
<path d="M24420 7180 c0 -5 5 -10 10 -10 6 0 10 5 10 10 0 6 -4 10 -10 10 -5
0 -10 -4 -10 -10z"/>
<path d="M24505 7140 c-3 -5 1 -10 10 -10 9 0 13 5 10 10 -3 6 -8 10 -10 10
-2 0 -7 -4 -10 -10z"/>
<path d="M27351 7071 c-1 -27 2 -32 11 -23 8 8 8 17 0 34 -10 22 -11 21 -11
-11z"/>
<path d="M20550 7010 c0 -5 5 -10 10 -10 6 0 10 5 10 10 0 6 -4 10 -10 10 -5
0 -10 -4 -10 -10z"/>
<path d="M24715 7010 c3 -5 10 -10 16 -10 5 0 9 5 9 10 0 6 -7 10 -16 10 -8 0
-12 -4 -9 -10z"/>
<path d="M20590 6965 c0 -8 5 -15 10 -15 6 0 10 7 10 15 0 8 -4 15 -10 15 -5
0 -10 -7 -10 -15z"/>
<path d="M27312 6950 c0 -19 2 -27 5 -17 2 9 2 25 0 35 -3 9 -5 1 -5 -18z"/>
<path d="M20630 6926 c0 -9 5 -16 10 -16 6 0 10 4 10 9 0 6 -4 13 -10 16 -5 3
-10 -1 -10 -9z"/>
<path d="M24840 6930 c0 -5 7 -10 16 -10 8 0 12 5 9 10 -3 6 -10 10 -16 10 -5
0 -9 -4 -9 -10z"/>
<path d="M24890 6885 c0 -9 5 -15 11 -13 6 2 11 8 11 13 0 5 -5 11 -11 13 -6
2 -11 -4 -11 -13z"/>
<path d="M20670 6880 c0 -5 5 -10 10 -10 6 0 10 5 10 10 0 6 -4 10 -10 10 -5
0 -10 -4 -10 -10z"/>
<path d="M20710 6840 c0 -5 7 -10 15 -10 8 0 15 5 15 10 0 6 -7 10 -15 10 -8
0 -15 -4 -15 -10z"/>
<path d="M21997 6820 c-7 -28 1 -46 14 -33 6 6 6 19 1 33 l-9 24 -6 -24z"/>
<path d="M20750 6800 c0 -5 7 -10 15 -10 8 0 15 5 15 10 0 6 -7 10 -15 10 -8
0 -15 -4 -15 -10z"/>
<path d="M25010 6800 c0 -5 7 -10 16 -10 8 0 12 5 9 10 -3 6 -10 10 -16 10 -5
0 -9 -4 -9 -10z"/>
<path d="M20800 6760 c0 -5 5 -10 10 -10 6 0 10 5 10 10 0 6 -4 10 -10 10 -5
0 -10 -4 -10 -10z"/>
<path d="M25055 6760 c3 -5 10 -10 16 -10 5 0 9 5 9 10 0 6 -7 10 -16 10 -8 0
-12 -4 -9 -10z"/>
<path d="M27180 6715 c0 -8 5 -15 10 -15 6 0 10 7 10 15 0 8 -4 15 -10 15 -5
0 -10 -7 -10 -15z"/>
<path d="M20925 6670 c3 -5 8 -10 11 -10 2 0 4 5 4 10 0 6 -5 10 -11 10 -5 0
-7 -4 -4 -10z"/>
<path d="M25180 6670 c0 -5 5 -10 10 -10 6 0 10 5 10 10 0 6 -4 10 -10 10 -5
0 -10 -4 -10 -10z"/>
<path d="M20965 6630 c3 -5 13 -10 21 -10 8 0 14 5 14 10 0 6 -9 10 -21 10
-11 0 -17 -4 -14 -10z"/>
<path d="M21910 6630 c0 -5 5 -10 10 -10 6 0 10 5 10 10 0 6 -4 10 -10 10 -5
0 -10 -4 -10 -10z"/>
<path d="M25225 6630 c3 -5 10 -10 16 -10 5 0 9 5 9 10 0 6 -7 10 -16 10 -8 0
-12 -4 -9 -10z"/>
<path d="M21050 6590 c0 -5 7 -10 16 -10 8 0 12 5 9 10 -3 6 -10 10 -16 10 -5
0 -9 -4 -9 -10z"/>
<path d="M21130 6550 c0 -5 7 -10 16 -10 8 0 12 5 9 10 -3 6 -10 10 -16 10 -5
0 -9 -4 -9 -10z"/>
<path d="M21835 6550 c-3 -5 -1 -10 4 -10 6 0 11 5 11 10 0 6 -2 10 -4 10 -3
0 -8 -4 -11 -10z"/>
<path d="M25350 6550 c0 -5 5 -10 10 -10 6 0 10 5 10 10 0 6 -4 10 -10 10 -5
0 -10 -4 -10 -10z"/>
<path d="M21215 6511 c-8 -14 10 -22 30 -15 13 5 14 8 3 15 -17 11 -26 11 -33
0z"/>
<path d="M21775 6511 c-3 -5 -1 -12 5 -16 12 -7 30 2 30 16 0 12 -27 12 -35 0z"/>
<path d="M21341 6471 c-21 -13 5 -24 40 -16 17 4 29 8 27 10 -11 9 -55 13 -67
6z"/>
<path d="M21652 6460 c10 -6 25 -7 40 -1 20 9 18 10 -17 10 -31 0 -36 -2 -23
-9z"/>
<path d="M25475 6460 c3 -5 10 -10 16 -10 5 0 9 5 9 10 0 6 -7 10 -16 10 -8 0
-12 -4 -9 -10z"/>
<path d="M26880 6420 c0 -5 7 -10 15 -10 8 0 15 5 15 10 0 6 -7 10 -15 10 -8
0 -15 -4 -15 -10z"/>
<path d="M26805 6380 c-3 -5 1 -10 9 -10 9 0 16 5 16 10 0 6 -4 10 -9 10 -6 0
-13 -4 -16 -10z"/>
<path d="M26715 6340 c-3 -5 3 -10 15 -10 12 0 18 5 15 10 -3 6 -10 10 -15 10
-5 0 -12 -4 -15 -10z"/>
<path d="M25806 6301 c-8 -12 18 -21 33 -11 10 5 8 9 -4 14 -21 8 -23 8 -29
-3z"/>
<path d="M26615 6300 c-18 -8 -17 -9 8 -9 16 -1 26 3 22 9 -3 6 -7 10 -8 9 -1
0 -11 -4 -22 -9z"/>
<path d="M25928 6248 c8 -8 20 -8 44 -1 l33 11 -44 1 c-34 1 -42 -2 -33 -11z"/>
<path d="M26435 6250 c8 -13 45 -13 65 0 11 7 3 10 -28 10 -26 0 -41 -4 -37
-10z"/>
<path d="M23240 6010 c0 -12 44 -12 80 0 20 6 14 8 -27 9 -29 1 -53 -3 -53 -9z"/>
<path d="M23779 6008 c37 -7 56 -7 64 1 8 8 -7 11 -53 10 l-65 -1 54 -10z"/>
<path d="M23965 5970 c3 -5 17 -10 31 -10 14 0 22 4 19 10 -3 6 -17 10 -31 10
-14 0 -22 -4 -19 -10z"/>
<path d="M24095 5930 c-4 -6 5 -10 20 -10 15 0 24 4 20 10 -3 6 -12 10 -20 10
-8 0 -17 -4 -20 -10z"/>
<path d="M22990 5890 c0 -5 7 -10 15 -10 8 0 15 5 15 10 0 6 -7 10 -15 10 -8
0 -15 -4 -15 -10z"/>
<path d="M24220 5890 c-12 -8 -10 -10 8 -10 13 0 20 4 17 10 -7 12 -6 12 -25
0z"/>
<path d="M22950 5850 c0 -5 5 -10 10 -10 6 0 10 5 10 10 0 6 -4 10 -10 10 -5
0 -10 -4 -10 -10z"/>
<path d="M24312 5849 c2 -7 10 -15 17 -17 8 -3 12 1 9 9 -2 7 -10 15 -17 17
-8 3 -12 -1 -9 -9z"/>
<path d="M22907 5814 c-8 -8 1 -24 14 -24 5 0 9 7 9 15 0 15 -12 20 -23 9z"/>
<path d="M24395 5800 c3 -5 13 -10 21 -10 8 0 14 5 14 10 0 6 -9 10 -21 10
-11 0 -17 -4 -14 -10z"/>
<path d="M24480 5760 c0 -5 7 -10 16 -10 8 0 12 5 9 10 -3 6 -10 10 -16 10 -5
0 -9 -4 -9 -10z"/>
<path d="M24612 5681 c4 -13 18 -16 19 -4 0 4 -5 9 -11 12 -7 2 -11 -2 -8 -8z"/>
<path d="M22830 5527 c0 -70 3 -127 8 -127 8 0 7 239 -2 248 -3 3 -6 -52 -6
-121z"/>
<path d="M24735 5590 c3 -5 10 -10 16 -10 5 0 9 5 9 10 0 6 -7 10 -16 10 -8 0
-12 -4 -9 -10z"/>
<path d="M24780 5550 c0 -5 5 -10 10 -10 6 0 10 5 10 10 0 6 -4 10 -10 10 -5
0 -10 -4 -10 -10z"/>
<path d="M22867 5297 c-3 -7 -1 -20 3 -28 7 -11 10 -10 16 4 4 10 2 23 -3 28
-7 7 -12 6 -16 -4z"/>
<path d="M25030 5300 c0 -5 5 -10 10 -10 6 0 10 5 10 10 0 6 -4 10 -10 10 -5
0 -10 -4 -10 -10z"/>
<path d="M25070 5255 c0 -8 5 -15 10 -15 6 0 10 7 10 15 0 8 -4 15 -10 15 -5
0 -10 -7 -10 -15z"/>
<path d="M22910 5195 c0 -8 5 -15 10 -15 6 0 10 7 10 15 0 8 -4 15 -10 15 -5
0 -10 -7 -10 -15z"/>
<path d="M25121 5174 c0 -11 3 -14 6 -6 3 7 2 16 -1 19 -3 4 -6 -2 -5 -13z"/>
<path d="M22950 5121 c0 -6 5 -13 10 -16 6 -3 10 1 10 9 0 9 -4 16 -10 16 -5
0 -10 -4 -10 -9z"/>
<path d="M23032 4989 c2 -6 8 -10 13 -10 5 0 11 4 13 10 2 6 -4 11 -13 11 -9
0 -15 -5 -13 -11z"/>
<path d="M23076 4952 c-3 -6 -1 -14 5 -17 15 -10 25 3 12 16 -7 7 -13 7 -17 1z"/>
<path d="M25240 4911 c0 -17 5 -33 10 -36 6 -4 10 8 10 29 0 20 -4 36 -10 36
-5 0 -10 -13 -10 -29z"/>
<path d="M23120 4900 c0 -5 5 -10 10 -10 6 0 10 5 10 10 0 6 -4 10 -10 10 -5
0 -10 -4 -10 -10z"/>
<path d="M23160 4860 c0 -5 5 -10 10 -10 6 0 10 5 10 10 0 6 -4 10 -10 10 -5
0 -10 -4 -10 -10z"/>
<path d="M23200 4820 c0 -5 5 -10 10 -10 6 0 10 5 10 10 0 6 -4 10 -10 10 -5
0 -10 -4 -10 -10z"/>
<path d="M23242 4781 c4 -13 18 -16 19 -4 0 4 -5 9 -11 12 -7 2 -11 -2 -8 -8z"/>
<path d="M25247 4633 c-11 -10 -8 -43 3 -43 6 0 10 11 10 25 0 26 -2 29 -13
18z"/>
<path d="M23460 4610 c0 -5 5 -10 11 -10 5 0 7 5 4 10 -3 6 -8 10 -11 10 -2 0
-4 -4 -4 -10z"/>
<path d="M23582 4531 c4 -13 18 -16 19 -4 0 4 -5 9 -11 12 -7 2 -11 -2 -8 -8z"/>
<path d="M25200 4525 c0 -8 5 -15 10 -15 6 0 10 7 10 15 0 8 -4 15 -10 15 -5
0 -10 -7 -10 -15z"/>
<path d="M23660 4480 c0 -5 7 -10 15 -10 8 0 15 5 15 10 0 6 -7 10 -15 10 -8
0 -15 -4 -15 -10z"/>
<path d="M23740 4440 c0 -5 9 -10 20 -10 11 0 20 5 20 10 0 6 -9 10 -20 10
-11 0 -20 -4 -20 -10z"/>
<path d="M23830 4400 c0 -5 12 -10 26 -10 14 0 23 4 19 10 -3 6 -15 10 -26 10
-10 0 -19 -4 -19 -10z"/>
<path d="M23950 4360 c-12 -8 -9 -10 13 -10 16 0 26 4 22 10 -8 12 -16 12 -35
0z"/>
<path d="M25035 4359 c-10 -15 3 -25 16 -12 7 7 7 13 1 17 -6 3 -14 1 -17 -5z"/>
<path d="M24083 4309 c14 -8 22 -8 30 0 8 8 3 11 -18 11 -26 -1 -28 -2 -12
-11z"/>
<path d="M24948 4308 c9 -9 15 -9 24 0 9 9 7 12 -12 12 -19 0 -21 -3 -12 -12z"/>
<path d="M24235 4270 c8 -13 45 -13 65 0 11 7 3 10 -28 10 -26 0 -41 -4 -37
-10z"/>
<path d="M24818 4268 c8 -8 17 -8 34 0 22 10 21 11 -11 11 -27 1 -32 -2 -23
-11z"/>
</g>
</svg>
