<?xml version="1.0" standalone="no"?>
<!DOCTYPE svg PUBLIC "-//W3C//DTD SVG 20010904//EN"
 "http://www.w3.org/TR/2001/REC-SVG-20010904/DTD/svg10.dtd">
<svg version="1.0" xmlns="http://www.w3.org/2000/svg"
 width="224.000000pt" height="224.000000pt" viewBox="0 0 224.000000 224.000000"
 preserveAspectRatio="xMidYMid meet">

<g transform="translate(0.000000,224.000000) scale(0.100000,-0.100000)"
fill="#000000" stroke="none">
<path d="M0 1120 l0 -1120 1120 0 1120 0 0 1120 0 1120 -1120 0 -1120 0 0
-1120z m1502 383 c81 -48 118 -146 85 -226 l-16 -37 -34 16 -35 17 15 34 c19
47 3 97 -41 124 -27 17 -51 19 -201 19 l-170 0 -118 -129 c-64 -72 -117 -134
-117 -138 0 -5 65 -71 145 -147 80 -76 145 -142 145 -147 0 -5 -20 -9 -45 -9
-46 0 -58 10 -330 271 l-29 29 55 57 c30 32 89 97 131 144 42 47 89 99 105
115 l28 29 198 -2 c171 -2 203 -4 229 -20z m-762 -304 l0 -320 -42 3 -43 3 -2
318 -1 317 44 0 44 0 0 -321z m778 8 c91 -60 110 -189 39 -265 -44 -48 -89
-62 -194 -62 l-98 0 -152 143 c-83 78 -152 145 -152 150 -1 4 20 7 47 7 46 0
49 -2 169 -115 l121 -115 67 0 c109 0 156 34 158 114 2 69 -61 105 -185 106
l-58 0 0 36 0 36 99 -4 c87 -3 103 -7 139 -31z m-745 -405 c-31 -5 -29 -22 2
-22 14 0 25 4 25 10 0 14 37 31 54 24 24 -9 19 -24 -6 -21 -17 1 -23 -3 -23
-18 0 -15 6 -19 23 -18 25 3 30 -12 6 -21 -17 -7 -54 10 -54 24 0 6 -11 10
-25 10 -14 0 -25 -4 -25 -10 0 -5 9 -10 20 -10 11 0 20 -4 20 -10 0 -5 -13
-10 -30 -10 -28 0 -30 3 -30 35 0 24 -5 35 -15 35 -10 0 -15 -11 -15 -35 0
-19 -4 -35 -10 -35 -5 0 -10 16 -10 35 0 27 -4 35 -17 35 -12 0 -14 3 -7 8 7
4 41 5 75 3 35 -3 54 -6 42 -9z m127 -7 c0 -8 7 -15 15 -15 8 0 15 7 15 15 0
8 5 15 10 15 6 0 10 -18 10 -41 0 -24 -4 -38 -10 -34 -5 3 -10 13 -10 21 0 8
-7 14 -15 14 -8 0 -15 -6 -15 -14 0 -8 -4 -18 -10 -21 -6 -4 -10 10 -10 34 0
23 5 41 10 41 6 0 10 -7 10 -15z m-92 -117 c2 -14 -4 -31 -13 -38 -24 -20 -65
2 -65 34 0 50 72 54 78 4z m340 0 c3 -18 -23 -48 -42 -48 -7 0 -20 6 -31 13
-22 17 -14 63 13 70 21 5 56 -15 60 -35z m-448 22 l-25 -8 23 -7 c25 -8 30
-43 7 -51 -8 -4 -23 -3 -32 1 -16 7 -14 9 7 14 l25 7 -22 12 c-35 19 -29 42
10 41 30 -1 31 -1 7 -9z m140 -20 c0 -23 4 -30 20 -30 11 0 20 -4 20 -10 0 -5
-13 -10 -30 -10 -28 0 -30 2 -30 40 0 22 5 40 10 40 6 0 10 -13 10 -30z m62 3
c2 -17 9 -28 18 -28 9 0 16 11 18 28 3 26 6 27 58 27 l54 0 0 -41 c0 -24 -4
-38 -10 -34 -5 3 -10 20 -10 36 0 41 -24 33 -28 -9 -4 -40 -22 -32 -22 9 0 39
-14 37 -25 -3 -6 -18 -17 -34 -26 -36 -23 -4 -49 25 -49 54 0 33 18 30 22 -3z
m290 10 c17 -15 18 -15 18 0 0 10 5 17 10 17 6 0 10 -18 10 -40 0 -46 -5 -49
-31 -17 -15 18 -18 19 -19 5 0 -9 -4 -20 -10 -23 -6 -4 -10 10 -10 34 0 45 5
49 32 24z m91 10 c-28 -5 -30 -23 -3 -23 13 0 20 -7 20 -20 0 -24 -22 -35 -47
-25 -16 7 -15 9 7 15 l25 8 -22 7 c-13 4 -23 15 -23 26 0 15 7 19 33 18 23 -1
26 -3 10 -6z m110 -38 c13 -13 16 -13 21 0 3 8 14 15 25 15 15 0 18 -5 13 -22
-5 -19 -7 -20 -10 -5 -4 21 -22 23 -22 2 0 -11 -7 -14 -25 -9 -14 3 -31 1 -39
-5 -17 -14 -31 2 -22 24 7 19 40 19 59 0z m84 -22 c-3 -10 -5 -4 -5 12 0 17 2
24 5 18 2 -7 2 -21 0 -30z m99 2 c-7 -20 -44 -14 -50 8 -3 12 0 17 8 14 7 -3
19 -1 27 4 16 9 24 -4 15 -26z m-60 -13 c-9 -8 -26 10 -26 26 1 15 2 15 15 -2
8 -11 13 -21 11 -24z m-835 -56 c5 3 9 0 9 -6 0 -6 5 -8 10 -5 6 3 10 0 10 -8
0 -7 -7 -14 -15 -14 -8 0 -15 5 -15 11 0 6 -5 4 -10 -4 -7 -11 -10 -8 -9 15 0
17 3 24 6 17 2 -6 9 -10 14 -6z m98 -20 c0 -20 -1 -20 -9 -1 -7 17 -9 17 -9 3
-1 -10 -5 -18 -11 -18 -11 0 -13 11 -4 34 8 21 34 8 33 -18z m213 10 c7 4 8 2
4 -4 -4 -7 -1 -12 8 -12 8 0 20 8 25 18 9 15 10 15 11 -4 0 -19 -5 -21 -70
-21 -63 1 -70 3 -70 21 0 20 0 20 15 0 10 -13 13 -14 10 -3 -4 10 0 16 9 16 8
0 13 -4 10 -9 -3 -4 0 -8 6 -8 6 0 14 8 18 18 6 16 7 16 10 -1 2 -9 8 -14 14
-11z m242 2 c35 12 61 8 64 -11 3 -13 -3 -17 -27 -17 -18 0 -31 -5 -31 -12 0
-7 -5 -5 -11 5 -6 9 -15 14 -21 11 -6 -4 -8 -2 -4 4 3 6 2 13 -3 16 -5 4 -12
-2 -14 -11 -3 -11 -5 -5 -6 12 -1 27 0 28 15 13 11 -11 24 -14 38 -10z m-358
-11 c1 -12 1 -13 -3 -2 -5 18 -23 20 -23 2 0 -7 -11 -14 -25 -15 -18 -1 -25 3
-24 16 0 10 3 12 6 5 2 -7 9 -13 15 -13 6 0 8 6 5 13 -3 9 4 13 21 12 18 0 27
-6 28 -18z m236 13 c3 9 11 8 31 -1 27 -12 37 -29 17 -29 -5 0 -10 6 -10 13 0
8 -4 7 -10 -3 -8 -13 -10 -12 -10 3 0 10 -5 15 -10 12 -6 -4 -8 -10 -6 -14 3
-4 -1 -8 -9 -8 -8 0 -15 7 -15 14 0 8 -5 11 -10 8 -6 -4 -8 -10 -6 -14 3 -4
-1 -8 -9 -8 -8 0 -15 6 -15 13 0 16 31 23 47 12 6 -5 13 -4 15 2z m-385 -22
c-3 -8 -6 -5 -6 6 -1 11 2 17 5 13 3 -3 4 -12 1 -19z m796 5 c-35 -2 -91 -2
-125 0 -35 2 -7 3 62 3 69 0 97 -1 63 -3z"/>
<path d="M757 694 c-15 -15 -7 -45 11 -42 9 2 17 12 17 22 0 20 -16 31 -28 20z"/>
<path d="M1084 685 c-4 -9 -2 -21 4 -27 15 -15 44 -1 40 19 -4 23 -36 29 -44
8z"/>
<path d="M1341 654 c0 -11 3 -14 6 -6 3 7 2 16 -1 19 -3 4 -6 -2 -5 -13z"/>
<path d="M1555 650 c3 -5 8 -10 11 -10 2 0 4 5 4 10 0 6 -5 10 -11 10 -5 0 -7
-4 -4 -10z"/>
<path d="M1245 560 c-3 -5 -1 -10 4 -10 6 0 11 5 11 10 0 6 -2 10 -4 10 -3 0
-8 -4 -11 -10z"/>
</g>
</svg>
